<svg width="580" height="370" viewBox="0 0 580 370" fill="none" xmlns="http://www.w3.org/2000/svg">
<path d="M579.1 0.109985H0.469727V369.4H579.1V0.109985Z" fill="url(#paint0_linear_33_974)"/>
<g style="mix-blend-mode:overlay">
<g clip-path="url(#clip0_33_974)">
<path d="M364.606 221.172C365.001 221.172 365.322 220.852 365.322 220.456C365.322 220.061 365.001 219.74 364.606 219.74C364.21 219.74 363.89 220.061 363.89 220.456C363.89 220.852 364.21 221.172 364.606 221.172Z" fill="#F9ECFD"/>
</g>
<g clip-path="url(#clip1_33_974)">
<path d="M336.606 222.332C337.001 222.332 337.322 222.012 337.322 221.616C337.322 221.221 337.001 220.9 336.606 220.9C336.21 220.9 335.89 221.221 335.89 221.616C335.89 222.012 336.21 222.332 336.606 222.332Z" fill="#F9ECFD"/>
</g>
<g clip-path="url(#clip2_33_974)">
<path d="M300.122 235.415C300.692 235.415 301.154 234.952 301.154 234.382C301.154 233.812 300.692 233.35 300.122 233.35C299.552 233.35 299.09 233.812 299.09 234.382C299.09 234.952 299.552 235.415 300.122 235.415Z" fill="#F9ECFD"/>
</g>
<g clip-path="url(#clip3_33_974)">
<path d="M300.095 244.689C300.721 244.689 301.229 244.181 301.229 243.555C301.229 242.928 300.721 242.42 300.095 242.42C299.468 242.42 298.96 242.928 298.96 243.555C298.96 244.181 299.468 244.689 300.095 244.689Z" fill="#F9ECFD"/>
</g>
<g clip-path="url(#clip4_33_974)">
<path d="M323.096 252.442C323.491 252.442 323.812 252.122 323.812 251.726C323.812 251.331 323.491 251.01 323.096 251.01C322.7 251.01 322.38 251.331 322.38 251.726C322.38 252.122 322.7 252.442 323.096 252.442Z" fill="#F9ECFD"/>
</g>
<g clip-path="url(#clip5_33_974)">
<path d="M374.566 268.812C374.961 268.812 375.282 268.492 375.282 268.096C375.282 267.701 374.961 267.38 374.566 267.38C374.17 267.38 373.85 267.701 373.85 268.096C373.85 268.492 374.17 268.812 374.566 268.812Z" fill="#F9ECFD"/>
</g>
<g clip-path="url(#clip6_33_974)">
<path d="M407.696 291.372C408.091 291.372 408.412 291.052 408.412 290.656C408.412 290.261 408.091 289.94 407.696 289.94C407.3 289.94 406.979 290.261 406.979 290.656C406.979 291.052 407.3 291.372 407.696 291.372Z" fill="#F9ECFD"/>
</g>
<g clip-path="url(#clip7_33_974)">
<path d="M420.846 324.092C421.241 324.092 421.562 323.772 421.562 323.376C421.562 322.981 421.241 322.66 420.846 322.66C420.45 322.66 420.13 322.981 420.13 323.376C420.13 323.772 420.45 324.092 420.846 324.092Z" fill="#F9ECFD"/>
</g>
<g clip-path="url(#clip8_33_974)">
<path d="M369.636 338.362C370.032 338.362 370.352 338.042 370.352 337.646C370.352 337.251 370.032 336.93 369.636 336.93C369.241 336.93 368.92 337.251 368.92 337.646C368.92 338.042 369.241 338.362 369.636 338.362Z" fill="#F9ECFD"/>
</g>
<g clip-path="url(#clip9_33_974)">
<path d="M300.785 339.332C301.181 339.332 301.502 339.012 301.502 338.616C301.502 338.221 301.181 337.9 300.785 337.9C300.39 337.9 300.069 338.221 300.069 338.616C300.069 339.012 300.39 339.332 300.785 339.332Z" fill="#F9ECFD"/>
</g>
<g clip-path="url(#clip10_33_974)">
<path d="M295.006 341.702C295.402 341.702 295.722 341.382 295.722 340.986C295.722 340.591 295.402 340.27 295.006 340.27C294.611 340.27 294.29 340.591 294.29 340.986C294.29 341.382 294.611 341.702 295.006 341.702Z" fill="#F9ECFD"/>
</g>
<g clip-path="url(#clip11_33_974)">
<path d="M304.726 332.482C305.121 332.482 305.442 332.162 305.442 331.766C305.442 331.371 305.121 331.05 304.726 331.05C304.33 331.05 304.01 331.371 304.01 331.766C304.01 332.162 304.33 332.482 304.726 332.482Z" fill="#F9ECFD"/>
</g>
<g clip-path="url(#clip12_33_974)">
<path d="M353.86 288.009C354.45 288.009 354.929 287.53 354.929 286.939C354.929 286.349 354.45 285.87 353.86 285.87C353.269 285.87 352.79 286.349 352.79 286.939C352.79 287.53 353.269 288.009 353.86 288.009Z" fill="#F9ECFD"/>
</g>
<g clip-path="url(#clip13_33_974)">
<path d="M389.426 300.192C389.822 300.192 390.142 299.872 390.142 299.476C390.142 299.081 389.822 298.76 389.426 298.76C389.031 298.76 388.71 299.081 388.71 299.476C388.71 299.872 389.031 300.192 389.426 300.192Z" fill="#F9ECFD"/>
</g>
<g clip-path="url(#clip14_33_974)">
<path d="M457.176 300.762C458.085 300.762 458.822 300.025 458.822 299.116C458.822 298.207 458.085 297.47 457.176 297.47C456.267 297.47 455.53 298.207 455.53 299.116C455.53 300.025 456.267 300.762 457.176 300.762Z" fill="#F9ECFD"/>
</g>
<g clip-path="url(#clip15_33_974)">
<path d="M523.206 292.372C523.602 292.372 523.922 292.052 523.922 291.656C523.922 291.261 523.602 290.94 523.206 290.94C522.811 290.94 522.49 291.261 522.49 291.656C522.49 292.052 522.811 292.372 523.206 292.372Z" fill="#F9ECFD"/>
</g>
<g clip-path="url(#clip16_33_974)">
<path d="M574.256 236.812C574.652 236.812 574.972 236.492 574.972 236.096C574.972 235.701 574.652 235.38 574.256 235.38C573.861 235.38 573.54 235.701 573.54 236.096C573.54 236.492 573.861 236.812 574.256 236.812Z" fill="#F9ECFD"/>
</g>
<g clip-path="url(#clip17_33_974)">
<path d="M551.486 223.342C551.881 223.342 552.202 223.022 552.202 222.626C552.202 222.231 551.881 221.91 551.486 221.91C551.09 221.91 550.77 222.231 550.77 222.626C550.77 223.022 551.09 223.342 551.486 223.342Z" fill="#F9ECFD"/>
</g>
<g clip-path="url(#clip18_33_974)">
<path d="M551.716 198.462C552.112 198.462 552.432 198.142 552.432 197.746C552.432 197.351 552.112 197.03 551.716 197.03C551.321 197.03 551 197.351 551 197.746C551 198.142 551.321 198.462 551.716 198.462Z" fill="#F9ECFD"/>
</g>
<g clip-path="url(#clip19_33_974)">
<path d="M517.01 205.18C517.816 205.18 518.47 204.526 518.47 203.72C518.47 202.914 517.816 202.26 517.01 202.26C516.204 202.26 515.55 202.914 515.55 203.72C515.55 204.526 516.204 205.18 517.01 205.18Z" fill="#F9ECFD"/>
</g>
<g clip-path="url(#clip20_33_974)">
<path d="M517.01 212.539C518.186 212.539 519.139 211.586 519.139 210.41C519.139 209.233 518.186 208.28 517.01 208.28C515.833 208.28 514.88 209.233 514.88 210.41C514.88 211.586 515.833 212.539 517.01 212.539Z" fill="#F9ECFD"/>
</g>
<g clip-path="url(#clip21_33_974)">
<path d="M491.876 209.462C492.272 209.462 492.592 209.142 492.592 208.746C492.592 208.351 492.272 208.03 491.876 208.03C491.481 208.03 491.16 208.351 491.16 208.746C491.16 209.142 491.481 209.462 491.876 209.462Z" fill="#F9ECFD"/>
</g>
<g clip-path="url(#clip22_33_974)">
<path d="M473.186 176.832C473.581 176.832 473.902 176.512 473.902 176.116C473.902 175.721 473.581 175.4 473.186 175.4C472.79 175.4 472.47 175.721 472.47 176.116C472.47 176.512 472.79 176.832 473.186 176.832Z" fill="#F9ECFD"/>
</g>
<g clip-path="url(#clip23_33_974)">
<path d="M443.306 148.222C443.701 148.222 444.022 147.902 444.022 147.506C444.022 147.111 443.701 146.79 443.306 146.79C442.91 146.79 442.59 147.111 442.59 147.506C442.59 147.902 442.91 148.222 443.306 148.222Z" fill="#F9ECFD"/>
</g>
<g clip-path="url(#clip24_33_974)">
<path d="M410.546 136.932C410.942 136.932 411.262 136.612 411.262 136.216C411.262 135.821 410.942 135.5 410.546 135.5C410.151 135.5 409.83 135.821 409.83 136.216C409.83 136.612 410.151 136.932 410.546 136.932Z" fill="#F9ECFD"/>
</g>
<g clip-path="url(#clip25_33_974)">
<path d="M395.366 127.312C395.761 127.312 396.082 126.992 396.082 126.596C396.082 126.201 395.761 125.88 395.366 125.88C394.97 125.88 394.649 126.201 394.649 126.596C394.649 126.992 394.97 127.312 395.366 127.312Z" fill="#F9ECFD"/>
</g>
<g clip-path="url(#clip26_33_974)">
<path d="M296.976 158.362C297.371 158.362 297.692 158.042 297.692 157.646C297.692 157.251 297.371 156.93 296.976 156.93C296.58 156.93 296.26 157.251 296.26 157.646C296.26 158.042 296.58 158.362 296.976 158.362Z" fill="#F9ECFD"/>
</g>
<g clip-path="url(#clip27_33_974)">
<path d="M258.736 146.992C259.131 146.992 259.452 146.672 259.452 146.276C259.452 145.881 259.131 145.56 258.736 145.56C258.34 145.56 258.02 145.881 258.02 146.276C258.02 146.672 258.34 146.992 258.736 146.992Z" fill="#F9ECFD"/>
</g>
<g clip-path="url(#clip28_33_974)">
<path d="M313.736 94.0722C314.131 94.0722 314.452 93.7516 314.452 93.3561C314.452 92.9606 314.131 92.64 313.736 92.64C313.34 92.64 313.02 92.9606 313.02 93.3561C313.02 93.7516 313.34 94.0722 313.736 94.0722Z" fill="#F9ECFD"/>
</g>
<g clip-path="url(#clip29_33_974)">
<path d="M395.526 82.5222C395.921 82.5222 396.242 82.2016 396.242 81.8061C396.242 81.4106 395.921 81.09 395.526 81.09C395.13 81.09 394.81 81.4106 394.81 81.8061C394.81 82.2016 395.13 82.5222 395.526 82.5222Z" fill="#F9ECFD"/>
</g>
<g clip-path="url(#clip30_33_974)">
<path d="M435.376 78.0222C435.772 78.0222 436.092 77.7016 436.092 77.3061C436.092 76.9106 435.772 76.59 435.376 76.59C434.981 76.59 434.66 76.9106 434.66 77.3061C434.66 77.7016 434.981 78.0222 435.376 78.0222Z" fill="#F9ECFD"/>
</g>
<g clip-path="url(#clip31_33_974)">
<path d="M453.706 74.7222C454.102 74.7222 454.422 74.4016 454.422 74.0061C454.422 73.6106 454.102 73.29 453.706 73.29C453.311 73.29 452.99 73.6106 452.99 74.0061C452.99 74.4016 453.311 74.7222 453.706 74.7222Z" fill="#F9ECFD"/>
</g>
<g clip-path="url(#clip32_33_974)">
<path d="M529.156 43.9522C529.551 43.9522 529.872 43.6316 529.872 43.2361C529.872 42.8406 529.551 42.52 529.156 42.52C528.76 42.52 528.439 42.8406 528.439 43.2361C528.439 43.6316 528.76 43.9522 529.156 43.9522Z" fill="#F9ECFD"/>
</g>
<g clip-path="url(#clip33_33_974)">
<path d="M519.206 71.5522C519.602 71.5522 519.922 71.2316 519.922 70.8361C519.922 70.4406 519.602 70.12 519.206 70.12C518.811 70.12 518.49 70.4406 518.49 70.8361C518.49 71.2316 518.811 71.5522 519.206 71.5522Z" fill="#F9ECFD"/>
</g>
<g clip-path="url(#clip34_33_974)">
<path d="M446.016 106.432C446.411 106.432 446.732 106.112 446.732 105.716C446.732 105.321 446.411 105 446.016 105C445.62 105 445.3 105.321 445.3 105.716C445.3 106.112 445.62 106.432 446.016 106.432Z" fill="#F9ECFD"/>
</g>
<g clip-path="url(#clip35_33_974)">
<path d="M327.316 135.342C327.711 135.342 328.032 135.022 328.032 134.626C328.032 134.231 327.711 133.91 327.316 133.91C326.92 133.91 326.6 134.231 326.6 134.626C326.6 135.022 326.92 135.342 327.316 135.342Z" fill="#F9ECFD"/>
</g>
<g clip-path="url(#clip36_33_974)">
<path d="M336.876 162.662C337.272 162.662 337.592 162.342 337.592 161.946C337.592 161.551 337.272 161.23 336.876 161.23C336.481 161.23 336.16 161.551 336.16 161.946C336.16 162.342 336.481 162.662 336.876 162.662Z" fill="#F9ECFD"/>
</g>
<g clip-path="url(#clip37_33_974)">
<path d="M316.517 180.793C317.498 180.793 318.293 179.997 318.293 179.016C318.293 178.035 317.498 177.24 316.517 177.24C315.536 177.24 314.74 178.035 314.74 179.016C314.74 179.997 315.536 180.793 316.517 180.793Z" fill="#F9ECFD"/>
</g>
<g clip-path="url(#clip38_33_974)">
<path d="M259.176 198.872C259.572 198.872 259.892 198.552 259.892 198.156C259.892 197.761 259.572 197.44 259.176 197.44C258.781 197.44 258.46 197.761 258.46 198.156C258.46 198.552 258.781 198.872 259.176 198.872Z" fill="#F9ECFD"/>
</g>
<g clip-path="url(#clip39_33_974)">
<path d="M195.776 204.782C196.171 204.782 196.492 204.462 196.492 204.066C196.492 203.671 196.171 203.35 195.776 203.35C195.38 203.35 195.06 203.671 195.06 204.066C195.06 204.462 195.38 204.782 195.776 204.782Z" fill="#F9ECFD"/>
</g>
<g clip-path="url(#clip40_33_974)">
<path d="M167.957 237.135C168.635 237.135 169.185 236.586 169.185 235.908C169.185 235.23 168.635 234.68 167.957 234.68C167.279 234.68 166.729 235.23 166.729 235.908C166.729 236.586 167.279 237.135 167.957 237.135Z" fill="#F9ECFD"/>
</g>
<g clip-path="url(#clip41_33_974)">
<path d="M166.765 249.82C167.536 249.82 168.16 249.195 168.16 248.425C168.16 247.655 167.536 247.03 166.765 247.03C165.995 247.03 165.37 247.655 165.37 248.425C165.37 249.195 165.995 249.82 166.765 249.82Z" fill="#F9ECFD"/>
</g>
<g clip-path="url(#clip42_33_974)">
<path d="M147.216 268.962C147.612 268.962 147.932 268.642 147.932 268.246C147.932 267.851 147.612 267.53 147.216 267.53C146.821 267.53 146.5 267.851 146.5 268.246C146.5 268.642 146.821 268.962 147.216 268.962Z" fill="#F9ECFD"/>
</g>
<g clip-path="url(#clip43_33_974)">
<path d="M133.766 303.272C134.161 303.272 134.482 302.952 134.482 302.556C134.482 302.161 134.161 301.84 133.766 301.84C133.37 301.84 133.05 302.161 133.05 302.556C133.05 302.952 133.37 303.272 133.766 303.272Z" fill="#F9ECFD"/>
</g>
<g clip-path="url(#clip44_33_974)">
<path d="M141.506 291.282C141.902 291.282 142.222 290.962 142.222 290.566C142.222 290.171 141.902 289.85 141.506 289.85C141.111 289.85 140.79 290.171 140.79 290.566C140.79 290.962 141.111 291.282 141.506 291.282Z" fill="#F9ECFD"/>
</g>
<g clip-path="url(#clip45_33_974)">
<path d="M137.296 297.372C137.692 297.372 138.012 297.052 138.012 296.656C138.012 296.261 137.692 295.94 137.296 295.94C136.901 295.94 136.58 296.261 136.58 296.656C136.58 297.052 136.901 297.372 137.296 297.372Z" fill="#F9ECFD"/>
</g>
<g clip-path="url(#clip46_33_974)">
<path d="M155.046 300.082C155.442 300.082 155.762 299.762 155.762 299.366C155.762 298.971 155.442 298.65 155.046 298.65C154.651 298.65 154.33 298.971 154.33 299.366C154.33 299.762 154.651 300.082 155.046 300.082Z" fill="#F9ECFD"/>
</g>
<g clip-path="url(#clip47_33_974)">
<path d="M147.886 283.122C148.282 283.122 148.602 282.802 148.602 282.406C148.602 282.011 148.282 281.69 147.886 281.69C147.491 281.69 147.17 282.011 147.17 282.406C147.17 282.802 147.491 283.122 147.886 283.122Z" fill="#F9ECFD"/>
</g>
<g clip-path="url(#clip48_33_974)">
<path d="M143.146 280.202C143.541 280.202 143.862 279.882 143.862 279.486C143.862 279.091 143.541 278.77 143.146 278.77C142.75 278.77 142.43 279.091 142.43 279.486C142.43 279.882 142.75 280.202 143.146 280.202Z" fill="#F9ECFD"/>
</g>
<g clip-path="url(#clip49_33_974)">
<path d="M218.056 341.452C218.451 341.452 218.772 341.132 218.772 340.736C218.772 340.341 218.451 340.02 218.056 340.02C217.66 340.02 217.34 340.341 217.34 340.736C217.34 341.132 217.66 341.452 218.056 341.452Z" fill="#F9ECFD"/>
</g>
<g clip-path="url(#clip50_33_974)">
<path d="M245.338 353.856C245.939 353.856 246.426 353.369 246.426 352.768C246.426 352.167 245.939 351.68 245.338 351.68C244.737 351.68 244.25 352.167 244.25 352.768C244.25 353.369 244.737 353.856 245.338 353.856Z" fill="#F9ECFD"/>
</g>
<g clip-path="url(#clip51_33_974)">
<path d="M258.911 359.433C259.415 359.433 259.823 359.025 259.823 358.521C259.823 358.018 259.415 357.61 258.911 357.61C258.408 357.61 258 358.018 258 358.521C258 359.025 258.408 359.433 258.911 359.433Z" fill="#F9ECFD"/>
</g>
<g clip-path="url(#clip52_33_974)">
<path d="M256.571 330.402C257.665 330.402 258.552 329.515 258.552 328.421C258.552 327.327 257.665 326.44 256.571 326.44C255.477 326.44 254.59 327.327 254.59 328.421C254.59 329.515 255.477 330.402 256.571 330.402Z" fill="#F9ECFD"/>
</g>
<g clip-path="url(#clip53_33_974)">
<path d="M252.035 311.522C252.431 311.522 252.752 311.202 252.752 310.806C252.752 310.411 252.431 310.09 252.035 310.09C251.64 310.09 251.319 310.411 251.319 310.806C251.319 311.202 251.64 311.522 252.035 311.522Z" fill="#F9ECFD"/>
</g>
<g clip-path="url(#clip54_33_974)">
<path d="M270.309 322.088C271.049 322.088 271.648 321.489 271.648 320.749C271.648 320.01 271.049 319.41 270.309 319.41C269.569 319.41 268.97 320.01 268.97 320.749C268.97 321.489 269.569 322.088 270.309 322.088Z" fill="#F9ECFD"/>
</g>
<g clip-path="url(#clip55_33_974)">
<path d="M315.666 350.572C316.062 350.572 316.382 350.252 316.382 349.856C316.382 349.461 316.062 349.14 315.666 349.14C315.271 349.14 314.95 349.461 314.95 349.856C314.95 350.252 315.271 350.572 315.666 350.572Z" fill="#F9ECFD"/>
</g>
<g clip-path="url(#clip56_33_974)">
<path d="M241.876 357.422C242.272 357.422 242.592 357.102 242.592 356.706C242.592 356.311 242.272 355.99 241.876 355.99C241.481 355.99 241.16 356.311 241.16 356.706C241.16 357.102 241.481 357.422 241.876 357.422Z" fill="#F9ECFD"/>
</g>
<g clip-path="url(#clip57_33_974)">
<path d="M200.333 366.917C200.893 366.917 201.347 366.464 201.347 365.904C201.347 365.344 200.893 364.89 200.333 364.89C199.773 364.89 199.319 365.344 199.319 365.904C199.319 366.464 199.773 366.917 200.333 366.917Z" fill="#F9ECFD"/>
</g>
<g clip-path="url(#clip58_33_974)">
<path d="M189.266 360.192C189.661 360.192 189.982 359.872 189.982 359.476C189.982 359.081 189.661 358.76 189.266 358.76C188.87 358.76 188.55 359.081 188.55 359.476C188.55 359.872 188.87 360.192 189.266 360.192Z" fill="#F9ECFD"/>
</g>
<g clip-path="url(#clip59_33_974)">
<path d="M172.773 365.016C173.558 365.016 174.195 364.379 174.195 363.593C174.195 362.807 173.558 362.17 172.773 362.17C171.987 362.17 171.35 362.807 171.35 363.593C171.35 364.379 171.987 365.016 172.773 365.016Z" fill="#F9ECFD"/>
</g>
<g clip-path="url(#clip60_33_974)">
<path d="M285.266 359.222C285.661 359.222 285.982 358.902 285.982 358.506C285.982 358.111 285.661 357.79 285.266 357.79C284.87 357.79 284.55 358.111 284.55 358.506C284.55 358.902 284.87 359.222 285.266 359.222Z" fill="#F9ECFD"/>
</g>
<g clip-path="url(#clip61_33_974)">
<path d="M312.006 355.322C312.402 355.322 312.722 355.002 312.722 354.606C312.722 354.211 312.402 353.89 312.006 353.89C311.611 353.89 311.29 354.211 311.29 354.606C311.29 355.002 311.611 355.322 312.006 355.322Z" fill="#F9ECFD"/>
</g>
<g clip-path="url(#clip62_33_974)">
<path d="M349.636 368.252C350.032 368.252 350.352 367.932 350.352 367.536C350.352 367.141 350.032 366.82 349.636 366.82C349.241 366.82 348.92 367.141 348.92 367.536C348.92 367.932 349.241 368.252 349.636 368.252Z" fill="#F9ECFD"/>
</g>
<g clip-path="url(#clip63_33_974)">
<path d="M385.456 347.342C385.852 347.342 386.172 347.022 386.172 346.626C386.172 346.231 385.852 345.91 385.456 345.91C385.061 345.91 384.74 346.231 384.74 346.626C384.74 347.022 385.061 347.342 385.456 347.342Z" fill="#F9ECFD"/>
</g>
<g clip-path="url(#clip64_33_974)">
<path d="M384.516 359.512C384.911 359.512 385.232 359.192 385.232 358.796C385.232 358.401 384.911 358.08 384.516 358.08C384.12 358.08 383.8 358.401 383.8 358.796C383.8 359.192 384.12 359.512 384.516 359.512Z" fill="#F9ECFD"/>
</g>
<g clip-path="url(#clip65_33_974)">
<path d="M372.466 345.112C372.862 345.112 373.182 344.792 373.182 344.396C373.182 344.001 372.862 343.68 372.466 343.68C372.071 343.68 371.75 344.001 371.75 344.396C371.75 344.792 372.071 345.112 372.466 345.112Z" fill="#F9ECFD"/>
</g>
<g clip-path="url(#clip66_33_974)">
<path d="M374.176 354.292C374.572 354.292 374.892 353.972 374.892 353.576C374.892 353.181 374.572 352.86 374.176 352.86C373.781 352.86 373.46 353.181 373.46 353.576C373.46 353.972 373.781 354.292 374.176 354.292Z" fill="#F9ECFD"/>
</g>
<g clip-path="url(#clip67_33_974)">
<path d="M404.036 355.542C404.432 355.542 404.753 355.222 404.753 354.826C404.753 354.431 404.432 354.11 404.036 354.11C403.641 354.11 403.32 354.431 403.32 354.826C403.32 355.222 403.641 355.542 404.036 355.542Z" fill="#F9ECFD"/>
</g>
<g clip-path="url(#clip68_33_974)">
<path d="M506.996 368.642C507.392 368.642 507.712 368.322 507.712 367.926C507.712 367.531 507.392 367.21 506.996 367.21C506.601 367.21 506.28 367.531 506.28 367.926C506.28 368.322 506.601 368.642 506.996 368.642Z" fill="#F9ECFD"/>
</g>
<g clip-path="url(#clip69_33_974)">
<path d="M522.486 367.832C522.881 367.832 523.202 367.512 523.202 367.116C523.202 366.721 522.881 366.4 522.486 366.4C522.09 366.4 521.77 366.721 521.77 367.116C521.77 367.512 522.09 367.832 522.486 367.832Z" fill="#F9ECFD"/>
</g>
<g clip-path="url(#clip70_33_974)">
<path d="M550.836 369.422C551.232 369.422 551.552 369.102 551.552 368.706C551.552 368.311 551.232 367.99 550.836 367.99C550.441 367.99 550.12 368.311 550.12 368.706C550.12 369.102 550.441 369.422 550.836 369.422Z" fill="#F9ECFD"/>
</g>
<g clip-path="url(#clip71_33_974)">
<path d="M508.056 344.632C508.451 344.632 508.772 344.312 508.772 343.916C508.772 343.521 508.451 343.2 508.056 343.2C507.66 343.2 507.34 343.521 507.34 343.916C507.34 344.312 507.66 344.632 508.056 344.632Z" fill="#F9ECFD"/>
</g>
<g clip-path="url(#clip72_33_974)">
<path d="M447.016 232.202C447.411 232.202 447.732 231.882 447.732 231.486C447.732 231.091 447.411 230.77 447.016 230.77C446.62 230.77 446.3 231.091 446.3 231.486C446.3 231.882 446.62 232.202 447.016 232.202Z" fill="#F9ECFD"/>
</g>
<g clip-path="url(#clip73_33_974)">
<path d="M430.136 249.572C430.532 249.572 430.852 249.252 430.852 248.856C430.852 248.461 430.532 248.14 430.136 248.14C429.741 248.14 429.42 248.461 429.42 248.856C429.42 249.252 429.741 249.572 430.136 249.572Z" fill="#F9ECFD"/>
</g>
<g clip-path="url(#clip74_33_974)">
<path d="M423.736 205.282C424.131 205.282 424.452 204.962 424.452 204.566C424.452 204.171 424.131 203.85 423.736 203.85C423.34 203.85 423.02 204.171 423.02 204.566C423.02 204.962 423.34 205.282 423.736 205.282Z" fill="#F9ECFD"/>
</g>
<g clip-path="url(#clip75_33_974)">
<path d="M426.575 194.922C426.971 194.922 427.292 194.602 427.292 194.206C427.292 193.811 426.971 193.49 426.575 193.49C426.18 193.49 425.859 193.811 425.859 194.206C425.859 194.602 426.18 194.922 426.575 194.922Z" fill="#F9ECFD"/>
</g>
<g clip-path="url(#clip76_33_974)">
<path d="M411.986 192.542C412.381 192.542 412.702 192.222 412.702 191.826C412.702 191.431 412.381 191.11 411.986 191.11C411.59 191.11 411.27 191.431 411.27 191.826C411.27 192.222 411.59 192.542 411.986 192.542Z" fill="#F9ECFD"/>
</g>
<g clip-path="url(#clip77_33_974)">
<path d="M492.14 118.429C493.465 118.429 494.539 117.355 494.539 116.029C494.539 114.704 493.465 113.63 492.14 113.63C490.814 113.63 489.74 114.704 489.74 116.029C489.74 117.355 490.814 118.429 492.14 118.429Z" fill="#F9ECFD"/>
</g>
<g clip-path="url(#clip78_33_974)">
<path d="M489.748 98.3368C490.2 98.3368 490.566 97.9704 490.566 97.5184C490.566 97.0664 490.2 96.7 489.748 96.7C489.296 96.7 488.93 97.0664 488.93 97.5184C488.93 97.9704 489.296 98.3368 489.748 98.3368Z" fill="#F9ECFD"/>
</g>
<g clip-path="url(#clip79_33_974)">
<path d="M498.223 99.5166C498.639 99.5166 498.976 99.1793 498.976 98.7633C498.976 98.3472 498.639 98.01 498.223 98.01C497.807 98.01 497.47 98.3472 497.47 98.7633C497.47 99.1793 497.807 99.5166 498.223 99.5166Z" fill="#F9ECFD"/>
</g>
<g clip-path="url(#clip80_33_974)">
<path d="M517.424 93.1398C517.902 93.1398 518.289 92.7526 518.289 92.2749C518.289 91.7972 517.902 91.41 517.424 91.41C516.947 91.41 516.56 91.7972 516.56 92.2749C516.56 92.7526 516.947 93.1398 517.424 93.1398Z" fill="#F9ECFD"/>
</g>
<g clip-path="url(#clip81_33_974)">
<path d="M516.116 87.8822C516.511 87.8822 516.832 87.5616 516.832 87.1661C516.832 86.7706 516.511 86.45 516.116 86.45C515.72 86.45 515.399 86.7706 515.399 87.1661C515.399 87.5616 515.72 87.8822 516.116 87.8822Z" fill="#F9ECFD"/>
</g>
<g clip-path="url(#clip82_33_974)">
<path d="M510.066 84.9822C510.461 84.9822 510.782 84.6616 510.782 84.2661C510.782 83.8706 510.461 83.55 510.066 83.55C509.67 83.55 509.35 83.8706 509.35 84.2661C509.35 84.6616 509.67 84.9822 510.066 84.9822Z" fill="#F9ECFD"/>
</g>
<g clip-path="url(#clip83_33_974)">
<path d="M509.426 88.4822C509.822 88.4822 510.142 88.1616 510.142 87.7661C510.142 87.3706 509.822 87.05 509.426 87.05C509.031 87.05 508.71 87.3706 508.71 87.7661C508.71 88.1616 509.031 88.4822 509.426 88.4822Z" fill="#F9ECFD"/>
</g>
<g clip-path="url(#clip84_33_974)">
<path d="M521.176 131.312C521.572 131.312 521.892 130.992 521.892 130.596C521.892 130.201 521.572 129.88 521.176 129.88C520.781 129.88 520.46 130.201 520.46 130.596C520.46 130.992 520.781 131.312 521.176 131.312Z" fill="#F9ECFD"/>
</g>
<g clip-path="url(#clip85_33_974)">
<path d="M535.316 153.422C535.711 153.422 536.032 153.102 536.032 152.706C536.032 152.311 535.711 151.99 535.316 151.99C534.92 151.99 534.6 152.311 534.6 152.706C534.6 153.102 534.92 153.422 535.316 153.422Z" fill="#F9ECFD"/>
</g>
<g clip-path="url(#clip86_33_974)">
<path d="M576.736 151.422C577.131 151.422 577.452 151.102 577.452 150.706C577.452 150.311 577.131 149.99 576.736 149.99C576.34 149.99 576.02 150.311 576.02 150.706C576.02 151.102 576.34 151.422 576.736 151.422Z" fill="#F9ECFD"/>
</g>
<g clip-path="url(#clip87_33_974)">
<path d="M315.016 104.302C315.411 104.302 315.732 103.982 315.732 103.586C315.732 103.191 315.411 102.87 315.016 102.87C314.62 102.87 314.3 103.191 314.3 103.586C314.3 103.982 314.62 104.302 315.016 104.302Z" fill="#F9ECFD"/>
</g>
<g clip-path="url(#clip88_33_974)">
<path d="M258.444 78.4378C259.589 78.4378 260.518 77.5093 260.518 76.3639C260.518 75.2185 259.589 74.29 258.444 74.29C257.299 74.29 256.37 75.2185 256.37 76.3639C256.37 77.5093 257.299 78.4378 258.444 78.4378Z" fill="#F9ECFD"/>
</g>
<g clip-path="url(#clip89_33_974)">
<path d="M241.807 65.0948C242.413 65.0948 242.905 64.6035 242.905 63.9974C242.905 63.3913 242.413 62.9 241.807 62.9C241.201 62.9 240.71 63.3913 240.71 63.9974C240.71 64.6035 241.201 65.0948 241.807 65.0948Z" fill="#F9ECFD"/>
</g>
<g clip-path="url(#clip90_33_974)">
<path d="M218.616 71.6622C219.011 71.6622 219.332 71.3416 219.332 70.9461C219.332 70.5506 219.011 70.23 218.616 70.23C218.22 70.23 217.899 70.5506 217.899 70.9461C217.899 71.3416 218.22 71.6622 218.616 71.6622Z" fill="#F9ECFD"/>
</g>
<g clip-path="url(#clip91_33_974)">
<path d="M208.196 52.7322C208.591 52.7322 208.912 52.4116 208.912 52.0161C208.912 51.6206 208.591 51.3 208.196 51.3C207.8 51.3 207.479 51.6206 207.479 52.0161C207.479 52.4116 207.8 52.7322 208.196 52.7322Z" fill="#F9ECFD"/>
</g>
<g clip-path="url(#clip92_33_974)">
<path d="M224.796 41.4522C225.192 41.4522 225.512 41.1316 225.512 40.7361C225.512 40.3406 225.192 40.02 224.796 40.02C224.401 40.02 224.08 40.3406 224.08 40.7361C224.08 41.1316 224.401 41.4522 224.796 41.4522Z" fill="#F9ECFD"/>
</g>
<g clip-path="url(#clip93_33_974)">
<path d="M193.785 40.1922C194.181 40.1922 194.502 39.8716 194.502 39.4761C194.502 39.0806 194.181 38.76 193.785 38.76C193.39 38.76 193.069 39.0806 193.069 39.4761C193.069 39.8716 193.39 40.1922 193.785 40.1922Z" fill="#F9ECFD"/>
</g>
<g clip-path="url(#clip94_33_974)">
<path d="M190.696 24.0022C191.091 24.0022 191.412 23.6816 191.412 23.2861C191.412 22.8906 191.091 22.57 190.696 22.57C190.3 22.57 189.979 22.8906 189.979 23.2861C189.979 23.6816 190.3 24.0022 190.696 24.0022Z" fill="#F9ECFD"/>
</g>
<g clip-path="url(#clip95_33_974)">
<path d="M189.535 43.3422C189.931 43.3422 190.252 43.0216 190.252 42.6261C190.252 42.2306 189.931 41.91 189.535 41.91C189.14 41.91 188.819 42.2306 188.819 42.6261C188.819 43.0216 189.14 43.3422 189.535 43.3422Z" fill="#F9ECFD"/>
</g>
<g clip-path="url(#clip96_33_974)">
<path d="M213.946 110.412C214.341 110.412 214.662 110.092 214.662 109.696C214.662 109.301 214.341 108.98 213.946 108.98C213.55 108.98 213.229 109.301 213.229 109.696C213.229 110.092 213.55 110.412 213.946 110.412Z" fill="#F9ECFD"/>
</g>
<g clip-path="url(#clip97_33_974)">
<path d="M199.256 98.9422C199.652 98.9422 199.972 98.6216 199.972 98.2261C199.972 97.8306 199.652 97.51 199.256 97.51C198.861 97.51 198.54 97.8306 198.54 98.2261C198.54 98.6216 198.861 98.9422 199.256 98.9422Z" fill="#F9ECFD"/>
</g>
<g clip-path="url(#clip98_33_974)">
<path d="M167.176 80.0322C167.572 80.0322 167.892 79.7116 167.892 79.3161C167.892 78.9206 167.572 78.6 167.176 78.6C166.781 78.6 166.46 78.9206 166.46 79.3161C166.46 79.7116 166.781 80.0322 167.176 80.0322Z" fill="#F9ECFD"/>
</g>
<g clip-path="url(#clip99_33_974)">
<path d="M176.075 93.5322C176.471 93.5322 176.792 93.2116 176.792 92.8161C176.792 92.4206 176.471 92.1 176.075 92.1C175.68 92.1 175.359 92.4206 175.359 92.8161C175.359 93.2116 175.68 93.5322 176.075 93.5322Z" fill="#F9ECFD"/>
</g>
<g clip-path="url(#clip100_33_974)">
<path d="M191.106 125.352C191.501 125.352 191.822 125.032 191.822 124.636C191.822 124.241 191.501 123.92 191.106 123.92C190.71 123.92 190.39 124.241 190.39 124.636C190.39 125.032 190.71 125.352 191.106 125.352Z" fill="#F9ECFD"/>
</g>
<g clip-path="url(#clip101_33_974)">
<path d="M139.186 138.522C139.581 138.522 139.902 138.202 139.902 137.806C139.902 137.411 139.581 137.09 139.186 137.09C138.79 137.09 138.47 137.411 138.47 137.806C138.47 138.202 138.79 138.522 139.186 138.522Z" fill="#F9ECFD"/>
</g>
<g clip-path="url(#clip102_33_974)">
<path d="M319.496 33.7022C319.892 33.7022 320.212 33.3816 320.212 32.9861C320.212 32.5906 319.892 32.27 319.496 32.27C319.101 32.27 318.78 32.5906 318.78 32.9861C318.78 33.3816 319.101 33.7022 319.496 33.7022Z" fill="#F9ECFD"/>
</g>
<g clip-path="url(#clip103_33_974)">
<path d="M321.186 12.1222C321.581 12.1222 321.902 11.8016 321.902 11.4061C321.902 11.0106 321.581 10.69 321.186 10.69C320.79 10.69 320.47 11.0106 320.47 11.4061C320.47 11.8016 320.79 12.1222 321.186 12.1222Z" fill="#F9ECFD"/>
</g>
<g clip-path="url(#clip104_33_974)">
<path d="M316.896 4.89219C317.291 4.89219 317.612 4.57158 317.612 4.17609C317.612 3.7806 317.291 3.45999 316.896 3.45999C316.5 3.45999 316.18 3.7806 316.18 4.17609C316.18 4.57158 316.5 4.89219 316.896 4.89219Z" fill="#F9ECFD"/>
</g>
<g clip-path="url(#clip105_33_974)">
<path d="M301.506 1.54219C301.902 1.54219 302.222 1.22158 302.222 0.826085C302.222 0.430594 301.902 0.109985 301.506 0.109985C301.111 0.109985 300.79 0.430594 300.79 0.826085C300.79 1.22158 301.111 1.54219 301.506 1.54219Z" fill="#F9ECFD"/>
</g>
</g>
<g style="mix-blend-mode:overlay">
<g clip-path="url(#clip106_33_974)">
<path d="M271.324 148.338C270.928 148.338 270.608 148.658 270.608 149.054C270.608 149.449 270.928 149.77 271.324 149.77C271.719 149.77 272.04 149.449 272.04 149.054C272.04 148.658 271.719 148.338 271.324 148.338Z" fill="#F9ECFD"/>
</g>
<g clip-path="url(#clip107_33_974)">
<path d="M299.324 147.178C298.928 147.178 298.608 147.498 298.608 147.894C298.608 148.289 298.928 148.61 299.324 148.61C299.719 148.61 300.04 148.289 300.04 147.894C300.04 147.498 299.719 147.178 299.324 147.178Z" fill="#F9ECFD"/>
</g>
<g clip-path="url(#clip108_33_974)">
<path d="M335.808 134.095C335.237 134.095 334.775 134.558 334.775 135.128C334.775 135.698 335.237 136.16 335.808 136.16C336.378 136.16 336.84 135.698 336.84 135.128C336.84 134.558 336.378 134.095 335.808 134.095Z" fill="#F9ECFD"/>
</g>
<g clip-path="url(#clip109_33_974)">
<path d="M335.835 124.811C335.209 124.811 334.701 125.319 334.701 125.945C334.701 126.572 335.209 127.08 335.835 127.08C336.462 127.08 336.97 126.572 336.97 125.945C336.97 125.319 336.462 124.811 335.835 124.811Z" fill="#F9ECFD"/>
</g>
<g clip-path="url(#clip110_33_974)">
<path d="M312.824 117.068C312.428 117.068 312.108 117.388 312.108 117.784C312.108 118.179 312.428 118.5 312.824 118.5C313.219 118.5 313.54 118.179 313.54 117.784C313.54 117.388 313.219 117.068 312.824 117.068Z" fill="#F9ECFD"/>
</g>
<g clip-path="url(#clip111_33_974)">
<path d="M261.364 100.698C260.968 100.698 260.648 101.018 260.648 101.414C260.648 101.809 260.968 102.13 261.364 102.13C261.759 102.13 262.08 101.809 262.08 101.414C262.08 101.018 261.759 100.698 261.364 100.698Z" fill="#F9ECFD"/>
</g>
<g clip-path="url(#clip112_33_974)">
<path d="M228.234 78.1378C227.839 78.1378 227.518 78.4584 227.518 78.8539C227.518 79.2494 227.839 79.57 228.234 79.57C228.63 79.57 228.95 79.2494 228.95 78.8539C228.95 78.4584 228.63 78.1378 228.234 78.1378Z" fill="#F9ECFD"/>
</g>
<g clip-path="url(#clip113_33_974)">
<path d="M215.084 45.4078C214.688 45.4078 214.368 45.7284 214.368 46.1239C214.368 46.5194 214.688 46.84 215.084 46.84C215.479 46.84 215.8 46.5194 215.8 46.1239C215.8 45.7284 215.479 45.4078 215.084 45.4078Z" fill="#F9ECFD"/>
</g>
<g clip-path="url(#clip114_33_974)">
<path d="M266.294 31.1478C265.898 31.1478 265.578 31.4684 265.578 31.8639C265.578 32.2594 265.898 32.58 266.294 32.58C266.689 32.58 267.01 32.2594 267.01 31.8639C267.01 31.4684 266.689 31.1478 266.294 31.1478Z" fill="#F9ECFD"/>
</g>
<g clip-path="url(#clip115_33_974)">
<path d="M335.143 30.1778C334.748 30.1778 334.427 30.4984 334.427 30.8939C334.427 31.2894 334.748 31.61 335.143 31.61C335.539 31.61 335.859 31.2894 335.859 30.8939C335.859 30.4984 335.539 30.1778 335.143 30.1778Z" fill="#F9ECFD"/>
</g>
<g clip-path="url(#clip116_33_974)">
<path d="M340.924 27.8078C340.528 27.8078 340.207 28.1284 340.207 28.5239C340.207 28.9194 340.528 29.24 340.924 29.24C341.319 29.24 341.64 28.9194 341.64 28.5239C341.64 28.1284 341.319 27.8078 340.924 27.8078Z" fill="#F9ECFD"/>
</g>
<g clip-path="url(#clip117_33_974)">
<path d="M331.194 37.0278C330.799 37.0278 330.478 37.3484 330.478 37.7439C330.478 38.1394 330.799 38.46 331.194 38.46C331.59 38.46 331.91 38.1394 331.91 37.7439C331.91 37.3484 331.59 37.0278 331.194 37.0278Z" fill="#F9ECFD"/>
</g>
<g clip-path="url(#clip118_33_974)">
<path d="M282.07 81.491C281.479 81.491 281.001 81.9698 281.001 82.5605C281.001 83.1512 281.479 83.63 282.07 83.63C282.661 83.63 283.14 83.1512 283.14 82.5605C283.14 81.9698 282.661 81.491 282.07 81.491Z" fill="#F9ECFD"/>
</g>
<g clip-path="url(#clip119_33_974)">
<path d="M246.504 69.3178C246.108 69.3178 245.788 69.6384 245.788 70.0339C245.788 70.4294 246.108 70.75 246.504 70.75C246.899 70.75 247.22 70.4294 247.22 70.0339C247.22 69.6384 246.899 69.3178 246.504 69.3178Z" fill="#F9ECFD"/>
</g>
<g clip-path="url(#clip120_33_974)">
<path d="M178.753 68.7478C177.844 68.7478 177.107 69.4848 177.107 70.3939C177.107 71.303 177.844 72.04 178.753 72.04C179.662 72.04 180.399 71.303 180.399 70.3939C180.399 69.4848 179.662 68.7478 178.753 68.7478Z" fill="#F9ECFD"/>
</g>
<g clip-path="url(#clip121_33_974)">
<path d="M112.714 77.1378C112.318 77.1378 111.997 77.4584 111.997 77.8539C111.997 78.2494 112.318 78.57 112.714 78.57C113.109 78.57 113.43 78.2494 113.43 77.8539C113.43 77.4584 113.109 77.1378 112.714 77.1378Z" fill="#F9ECFD"/>
</g>
<g clip-path="url(#clip122_33_974)">
<path d="M61.6735 132.688C61.2781 132.688 60.9574 133.008 60.9574 133.404C60.9574 133.799 61.2781 134.12 61.6735 134.12C62.069 134.12 62.3896 133.799 62.3896 133.404C62.3896 133.008 62.069 132.688 61.6735 132.688Z" fill="#F9ECFD"/>
</g>
<g clip-path="url(#clip123_33_974)">
<path d="M84.4441 146.168C84.0486 146.168 83.728 146.488 83.728 146.884C83.728 147.279 84.0486 147.6 84.4441 147.6C84.8395 147.6 85.1602 147.279 85.1602 146.884C85.1602 146.488 84.8395 146.168 84.4441 146.168Z" fill="#F9ECFD"/>
</g>
<g clip-path="url(#clip124_33_974)">
<path d="M84.2136 171.038C83.8181 171.038 83.4975 171.358 83.4975 171.754C83.4975 172.149 83.8181 172.47 84.2136 172.47C84.6091 172.47 84.9297 172.149 84.9297 171.754C84.9297 171.358 84.6091 171.038 84.2136 171.038Z" fill="#F9ECFD"/>
</g>
<g clip-path="url(#clip125_33_974)">
<path d="M118.92 164.32C118.113 164.32 117.46 164.973 117.46 165.78C117.46 166.586 118.113 167.24 118.92 167.24C119.726 167.24 120.38 166.586 120.38 165.78C120.38 164.973 119.726 164.32 118.92 164.32Z" fill="#F9ECFD"/>
</g>
<g clip-path="url(#clip126_33_974)">
<path d="M118.92 156.961C117.744 156.961 116.79 157.914 116.79 159.09C116.79 160.266 117.744 161.22 118.92 161.22C120.096 161.22 121.05 160.266 121.05 159.09C121.05 157.914 120.096 156.961 118.92 156.961Z" fill="#F9ECFD"/>
</g>
<g clip-path="url(#clip127_33_974)">
<path d="M144.053 160.048C143.658 160.048 143.337 160.368 143.337 160.764C143.337 161.159 143.658 161.48 144.053 161.48C144.449 161.48 144.77 161.159 144.77 160.764C144.77 160.368 144.449 160.048 144.053 160.048Z" fill="#F9ECFD"/>
</g>
<g clip-path="url(#clip128_33_974)">
<path d="M162.744 192.678C162.348 192.678 162.028 192.998 162.028 193.394C162.028 193.789 162.348 194.11 162.744 194.11C163.139 194.11 163.46 193.789 163.46 193.394C163.46 192.998 163.139 192.678 162.744 192.678Z" fill="#F9ECFD"/>
</g>
<g clip-path="url(#clip129_33_974)">
<path d="M192.614 221.288C192.218 221.288 191.898 221.608 191.898 222.004C191.898 222.399 192.218 222.72 192.614 222.72C193.009 222.72 193.33 222.399 193.33 222.004C193.33 221.608 193.009 221.288 192.614 221.288Z" fill="#F9ECFD"/>
</g>
<g clip-path="url(#clip130_33_974)">
<path d="M225.384 232.578C224.988 232.578 224.667 232.898 224.667 233.294C224.667 233.689 224.988 234.01 225.384 234.01C225.779 234.01 226.1 233.689 226.1 233.294C226.1 232.898 225.779 232.578 225.384 232.578Z" fill="#F9ECFD"/>
</g>
<g clip-path="url(#clip131_33_974)">
<path d="M240.564 242.198C240.169 242.198 239.848 242.518 239.848 242.914C239.848 243.309 240.169 243.63 240.564 243.63C240.96 243.63 241.28 243.309 241.28 242.914C241.28 242.518 240.96 242.198 240.564 242.198Z" fill="#F9ECFD"/>
</g>
<g clip-path="url(#clip132_33_974)">
<path d="M338.954 211.148C338.558 211.148 338.238 211.468 338.238 211.864C338.238 212.259 338.558 212.58 338.954 212.58C339.349 212.58 339.67 212.259 339.67 211.864C339.67 211.468 339.349 211.148 338.954 211.148Z" fill="#F9ECFD"/>
</g>
<g clip-path="url(#clip133_33_974)">
<path d="M377.194 222.518C376.799 222.518 376.478 222.838 376.478 223.234C376.478 223.629 376.799 223.95 377.194 223.95C377.59 223.95 377.91 223.629 377.91 223.234C377.91 222.838 377.59 222.518 377.194 222.518Z" fill="#F9ECFD"/>
</g>
<g clip-path="url(#clip134_33_974)">
<path d="M322.194 275.438C321.799 275.438 321.478 275.758 321.478 276.154C321.478 276.549 321.799 276.87 322.194 276.87C322.59 276.87 322.91 276.549 322.91 276.154C322.91 275.758 322.59 275.438 322.194 275.438Z" fill="#F9ECFD"/>
</g>
<g clip-path="url(#clip135_33_974)">
<path d="M240.404 286.978C240.009 286.978 239.688 287.298 239.688 287.694C239.688 288.089 240.009 288.41 240.404 288.41C240.8 288.41 241.12 288.089 241.12 287.694C241.12 287.298 240.8 286.978 240.404 286.978Z" fill="#F9ECFD"/>
</g>
<g clip-path="url(#clip136_33_974)">
<path d="M200.544 291.488C200.148 291.488 199.828 291.808 199.828 292.204C199.828 292.599 200.148 292.92 200.544 292.92C200.939 292.92 201.26 292.599 201.26 292.204C201.26 291.808 200.939 291.488 200.544 291.488Z" fill="#F9ECFD"/>
</g>
<g clip-path="url(#clip137_33_974)">
<path d="M182.223 294.788C181.828 294.788 181.507 295.108 181.507 295.504C181.507 295.899 181.828 296.22 182.223 296.22C182.619 296.22 182.939 295.899 182.939 295.504C182.939 295.108 182.619 294.788 182.223 294.788Z" fill="#F9ECFD"/>
</g>
<g clip-path="url(#clip138_33_974)">
<path d="M106.774 325.558C106.379 325.558 106.058 325.878 106.058 326.274C106.058 326.669 106.379 326.99 106.774 326.99C107.17 326.99 107.49 326.669 107.49 326.274C107.49 325.878 107.17 325.558 106.774 325.558Z" fill="#F9ECFD"/>
</g>
<g clip-path="url(#clip139_33_974)">
<path d="M116.723 297.948C116.328 297.948 116.007 298.268 116.007 298.664C116.007 299.059 116.328 299.38 116.723 299.38C117.119 299.38 117.439 299.059 117.439 298.664C117.439 298.268 117.119 297.948 116.723 297.948Z" fill="#F9ECFD"/>
</g>
<g clip-path="url(#clip140_33_974)">
<path d="M189.904 263.078C189.509 263.078 189.188 263.398 189.188 263.794C189.188 264.189 189.509 264.51 189.904 264.51C190.3 264.51 190.62 264.189 190.62 263.794C190.62 263.398 190.3 263.078 189.904 263.078Z" fill="#F9ECFD"/>
</g>
<g clip-path="url(#clip141_33_974)">
<path d="M308.614 234.168C308.218 234.168 307.898 234.488 307.898 234.884C307.898 235.279 308.218 235.6 308.614 235.6C309.009 235.6 309.33 235.279 309.33 234.884C309.33 234.488 309.009 234.168 308.614 234.168Z" fill="#F9ECFD"/>
</g>
<g clip-path="url(#clip142_33_974)">
<path d="M299.044 206.838C298.648 206.838 298.328 207.158 298.328 207.554C298.328 207.949 298.648 208.27 299.044 208.27C299.439 208.27 299.76 207.949 299.76 207.554C299.76 207.158 299.439 206.838 299.044 206.838Z" fill="#F9ECFD"/>
</g>
<g clip-path="url(#clip143_33_974)">
<path d="M319.413 188.707C318.432 188.707 317.637 189.503 317.637 190.484C317.637 191.465 318.432 192.26 319.413 192.26C320.394 192.26 321.189 191.465 321.189 190.484C321.189 189.503 320.394 188.707 319.413 188.707Z" fill="#F9ECFD"/>
</g>
<g clip-path="url(#clip144_33_974)">
<path d="M376.754 170.628C376.358 170.628 376.038 170.948 376.038 171.344C376.038 171.739 376.358 172.06 376.754 172.06C377.149 172.06 377.47 171.739 377.47 171.344C377.47 170.948 377.149 170.628 376.754 170.628Z" fill="#F9ECFD"/>
</g>
<g clip-path="url(#clip145_33_974)">
<path d="M440.154 164.728C439.759 164.728 439.438 165.048 439.438 165.444C439.438 165.839 439.759 166.16 440.154 166.16C440.55 166.16 440.87 165.839 440.87 165.444C440.87 165.048 440.55 164.728 440.154 164.728Z" fill="#F9ECFD"/>
</g>
<g clip-path="url(#clip146_33_974)">
<path d="M467.973 132.375C467.295 132.375 466.745 132.924 466.745 133.602C466.745 134.28 467.295 134.83 467.973 134.83C468.651 134.83 469.2 134.28 469.2 133.602C469.2 132.924 468.651 132.375 467.973 132.375Z" fill="#F9ECFD"/>
</g>
<g clip-path="url(#clip147_33_974)">
<path d="M469.165 119.68C468.394 119.68 467.77 120.305 467.77 121.075C467.77 121.845 468.394 122.47 469.165 122.47C469.935 122.47 470.56 121.845 470.56 121.075C470.56 120.305 469.935 119.68 469.165 119.68Z" fill="#F9ECFD"/>
</g>
<g clip-path="url(#clip148_33_974)">
<path d="M488.714 100.548C488.318 100.548 487.997 100.868 487.997 101.264C487.997 101.659 488.318 101.98 488.714 101.98C489.109 101.98 489.43 101.659 489.43 101.264C489.43 100.868 489.109 100.548 488.714 100.548Z" fill="#F9ECFD"/>
</g>
<g clip-path="url(#clip149_33_974)">
<path d="M502.164 66.2278C501.768 66.2278 501.448 66.5484 501.448 66.9439C501.448 67.3394 501.768 67.66 502.164 67.66C502.559 67.66 502.88 67.3394 502.88 66.9439C502.88 66.5484 502.559 66.2278 502.164 66.2278Z" fill="#F9ECFD"/>
</g>
<g clip-path="url(#clip150_33_974)">
<path d="M494.414 78.2178C494.018 78.2178 493.698 78.5384 493.698 78.9339C493.698 79.3294 494.018 79.65 494.414 79.65C494.809 79.65 495.13 79.3294 495.13 78.9339C495.13 78.5384 494.809 78.2178 494.414 78.2178Z" fill="#F9ECFD"/>
</g>
<g clip-path="url(#clip151_33_974)">
<path d="M498.624 72.1378C498.228 72.1378 497.908 72.4584 497.908 72.8539C497.908 73.2494 498.228 73.57 498.624 73.57C499.019 73.57 499.34 73.2494 499.34 72.8539C499.34 72.4584 499.019 72.1378 498.624 72.1378Z" fill="#F9ECFD"/>
</g>
<g clip-path="url(#clip152_33_974)">
<path d="M480.884 69.4178C480.488 69.4178 480.167 69.7384 480.167 70.1339C480.167 70.5294 480.488 70.85 480.884 70.85C481.279 70.85 481.6 70.5294 481.6 70.1339C481.6 69.7384 481.279 69.4178 480.884 69.4178Z" fill="#F9ECFD"/>
</g>
<g clip-path="url(#clip153_33_974)">
<path d="M488.034 86.3878C487.638 86.3878 487.318 86.7084 487.318 87.1039C487.318 87.4994 487.638 87.82 488.034 87.82C488.429 87.82 488.75 87.4994 488.75 87.1039C488.75 86.7084 488.429 86.3878 488.034 86.3878Z" fill="#F9ECFD"/>
</g>
<g clip-path="url(#clip154_33_974)">
<path d="M492.784 89.3078C492.388 89.3078 492.068 89.6284 492.068 90.0239C492.068 90.4194 492.388 90.74 492.784 90.74C493.179 90.74 493.5 90.4194 493.5 90.0239C493.5 89.6284 493.179 89.3078 492.784 89.3078Z" fill="#F9ECFD"/>
</g>
<g clip-path="url(#clip155_33_974)">
<path d="M417.874 28.0578C417.478 28.0578 417.158 28.3784 417.158 28.7739C417.158 29.1694 417.478 29.49 417.874 29.49C418.269 29.49 418.59 29.1694 418.59 28.7739C418.59 28.3784 418.269 28.0578 417.874 28.0578Z" fill="#F9ECFD"/>
</g>
<g clip-path="url(#clip156_33_974)">
<path d="M390.592 15.6438C389.991 15.6438 389.503 16.131 389.503 16.7319C389.503 17.3328 389.991 17.82 390.592 17.82C391.193 17.82 391.68 17.3328 391.68 16.7319C391.68 16.131 391.193 15.6438 390.592 15.6438Z" fill="#F9ECFD"/>
</g>
<g clip-path="url(#clip157_33_974)">
<path d="M377.018 10.0772C376.515 10.0772 376.107 10.4852 376.107 10.9886C376.107 11.4919 376.515 11.9 377.018 11.9C377.522 11.9 377.93 11.4919 377.93 10.9886C377.93 10.4852 377.522 10.0772 377.018 10.0772Z" fill="#F9ECFD"/>
</g>
<g clip-path="url(#clip158_33_974)">
<path d="M379.359 39.1082C378.265 39.1082 377.378 39.9951 377.378 41.0891C377.378 42.1831 378.265 43.07 379.359 43.07C380.453 43.07 381.34 42.1831 381.34 41.0891C381.34 39.9951 380.453 39.1082 379.359 39.1082Z" fill="#F9ECFD"/>
</g>
<g clip-path="url(#clip159_33_974)">
<path d="M383.893 57.9778C383.498 57.9778 383.177 58.2984 383.177 58.6939C383.177 59.0894 383.498 59.41 383.893 59.41C384.289 59.41 384.609 59.0894 384.609 58.6939C384.609 58.2984 384.289 57.9778 383.893 57.9778Z" fill="#F9ECFD"/>
</g>
<g clip-path="url(#clip160_33_974)">
<path d="M365.611 47.4216C364.871 47.4216 364.272 48.0212 364.272 48.7608C364.272 49.5004 364.871 50.1 365.611 50.1C366.351 50.1 366.95 49.5004 366.95 48.7608C366.95 48.0212 366.351 47.4216 365.611 47.4216Z" fill="#F9ECFD"/>
</g>
<g clip-path="url(#clip161_33_974)">
<path d="M320.263 18.9378C319.868 18.9378 319.547 19.2584 319.547 19.6539C319.547 20.0494 319.868 20.37 320.263 20.37C320.659 20.37 320.979 20.0494 320.979 19.6539C320.979 19.2584 320.659 18.9378 320.263 18.9378Z" fill="#F9ECFD"/>
</g>
<g clip-path="url(#clip162_33_974)">
<path d="M394.053 12.0878C393.658 12.0878 393.337 12.4084 393.337 12.8039C393.337 13.1994 393.658 13.52 394.053 13.52C394.449 13.52 394.77 13.1994 394.77 12.8039C394.77 12.4084 394.449 12.0878 394.053 12.0878Z" fill="#F9ECFD"/>
</g>
<g clip-path="url(#clip163_33_974)">
<path d="M435.596 2.58259C435.036 2.58259 434.582 3.03643 434.582 3.59629C434.582 4.15614 435.036 4.60999 435.596 4.60999C436.156 4.60999 436.609 4.15614 436.609 3.59629C436.609 3.03643 436.156 2.58259 435.596 2.58259Z" fill="#F9ECFD"/>
</g>
<g clip-path="url(#clip164_33_974)">
<path d="M446.664 9.31778C446.268 9.31778 445.948 9.63839 445.948 10.0339C445.948 10.4294 446.268 10.75 446.664 10.75C447.059 10.75 447.38 10.4294 447.38 10.0339C447.38 9.63839 447.059 9.31778 446.664 9.31778Z" fill="#F9ECFD"/>
</g>
<g clip-path="url(#clip165_33_974)">
<path d="M463.157 4.48419C462.371 4.48419 461.734 5.12124 461.734 5.90709C461.734 6.69293 462.371 7.32999 463.157 7.32999C463.943 7.32999 464.58 6.69293 464.58 5.90709C464.58 5.12124 463.943 4.48419 463.157 4.48419Z" fill="#F9ECFD"/>
</g>
<g clip-path="url(#clip166_33_974)">
<path d="M350.664 10.2878C350.268 10.2878 349.948 10.6084 349.948 11.0039C349.948 11.3994 350.268 11.72 350.664 11.72C351.059 11.72 351.38 11.3994 351.38 11.0039C351.38 10.6084 351.059 10.2878 350.664 10.2878Z" fill="#F9ECFD"/>
</g>
<g clip-path="url(#clip167_33_974)">
<path d="M323.924 14.1778C323.528 14.1778 323.207 14.4984 323.207 14.8939C323.207 15.2894 323.528 15.61 323.924 15.61C324.319 15.61 324.64 15.2894 324.64 14.8939C324.64 14.4984 324.319 14.1778 323.924 14.1778Z" fill="#F9ECFD"/>
</g>
<g clip-path="url(#clip168_33_974)">
<path d="M286.294 1.24779C285.898 1.24779 285.578 1.5684 285.578 1.96389C285.578 2.35938 285.898 2.67999 286.294 2.67999C286.689 2.67999 287.01 2.35938 287.01 1.96389C287.01 1.5684 286.689 1.24779 286.294 1.24779Z" fill="#F9ECFD"/>
</g>
<g clip-path="url(#clip169_33_974)">
<path d="M250.464 22.1578C250.068 22.1578 249.747 22.4784 249.747 22.8739C249.747 23.2694 250.068 23.59 250.464 23.59C250.859 23.59 251.18 23.2694 251.18 22.8739C251.18 22.4784 250.859 22.1578 250.464 22.1578Z" fill="#F9ECFD"/>
</g>
<g clip-path="url(#clip170_33_974)">
<path d="M251.414 9.99779C251.018 9.99779 250.698 10.3184 250.698 10.7139C250.698 11.1094 251.018 11.43 251.414 11.43C251.809 11.43 252.13 11.1094 252.13 10.7139C252.13 10.3184 251.809 9.99779 251.414 9.99779Z" fill="#F9ECFD"/>
</g>
<g clip-path="url(#clip171_33_974)">
<path d="M263.464 24.3878C263.068 24.3878 262.747 24.7084 262.747 25.1039C262.747 25.4994 263.068 25.82 263.464 25.82C263.859 25.82 264.18 25.4994 264.18 25.1039C264.18 24.7084 263.859 24.3878 263.464 24.3878Z" fill="#F9ECFD"/>
</g>
<g clip-path="url(#clip172_33_974)">
<path d="M261.754 15.2078C261.358 15.2078 261.038 15.5284 261.038 15.9239C261.038 16.3194 261.358 16.64 261.754 16.64C262.149 16.64 262.47 16.3194 262.47 15.9239C262.47 15.5284 262.149 15.2078 261.754 15.2078Z" fill="#F9ECFD"/>
</g>
<g clip-path="url(#clip173_33_974)">
<path d="M231.893 13.9678C231.498 13.9678 231.177 14.2884 231.177 14.6839C231.177 15.0794 231.498 15.4 231.893 15.4C232.289 15.4 232.609 15.0794 232.609 14.6839C232.609 14.2884 232.289 13.9678 231.893 13.9678Z" fill="#F9ECFD"/>
</g>
<g clip-path="url(#clip174_33_974)">
<path d="M128.933 0.857793C128.538 0.857793 128.217 1.1784 128.217 1.57389C128.217 1.96938 128.538 2.28999 128.933 2.28999C129.329 2.28999 129.649 1.96938 129.649 1.57389C129.649 1.1784 129.329 0.857793 128.933 0.857793Z" fill="#F9ECFD"/>
</g>
<g clip-path="url(#clip175_33_974)">
<path d="M113.444 1.67779C113.049 1.67779 112.728 1.99839 112.728 2.39389C112.728 2.78938 113.049 3.10999 113.444 3.10999C113.84 3.10999 114.16 2.78938 114.16 2.39389C114.16 1.99839 113.84 1.67779 113.444 1.67779Z" fill="#F9ECFD"/>
</g>
<g clip-path="url(#clip176_33_974)">
<path d="M85.0935 0.0877891C84.698 0.0877891 84.3774 0.408398 84.3774 0.803889C84.3774 1.19938 84.698 1.51999 85.0935 1.51999C85.489 1.51999 85.8096 1.19938 85.8096 0.803889C85.8096 0.408398 85.489 0.0877891 85.0935 0.0877891Z" fill="#F9ECFD"/>
</g>
<g clip-path="url(#clip177_33_974)">
<path d="M127.874 24.8778C127.478 24.8778 127.158 25.1984 127.158 25.5939C127.158 25.9894 127.478 26.31 127.874 26.31C128.269 26.31 128.59 25.9894 128.59 25.5939C128.59 25.1984 128.269 24.8778 127.874 24.8778Z" fill="#F9ECFD"/>
</g>
<g clip-path="url(#clip178_33_974)">
<path d="M188.914 137.298C188.518 137.298 188.198 137.618 188.198 138.014C188.198 138.409 188.518 138.73 188.914 138.73C189.309 138.73 189.63 138.409 189.63 138.014C189.63 137.618 189.309 137.298 188.914 137.298Z" fill="#F9ECFD"/>
</g>
<g clip-path="url(#clip179_33_974)">
<path d="M205.794 119.938C205.398 119.938 205.078 120.258 205.078 120.654C205.078 121.049 205.398 121.37 205.794 121.37C206.189 121.37 206.51 121.049 206.51 120.654C206.51 120.258 206.189 119.938 205.794 119.938Z" fill="#F9ECFD"/>
</g>
<g clip-path="url(#clip180_33_974)">
<path d="M212.194 164.228C211.799 164.228 211.478 164.548 211.478 164.944C211.478 165.339 211.799 165.66 212.194 165.66C212.59 165.66 212.91 165.339 212.91 164.944C212.91 164.548 212.59 164.228 212.194 164.228Z" fill="#F9ECFD"/>
</g>
<g clip-path="url(#clip181_33_974)">
<path d="M209.354 174.578C208.959 174.578 208.638 174.898 208.638 175.294C208.638 175.689 208.959 176.01 209.354 176.01C209.75 176.01 210.07 175.689 210.07 175.294C210.07 174.898 209.75 174.578 209.354 174.578Z" fill="#F9ECFD"/>
</g>
<g clip-path="url(#clip182_33_974)">
<path d="M223.944 176.958C223.549 176.958 223.228 177.278 223.228 177.674C223.228 178.069 223.549 178.39 223.944 178.39C224.34 178.39 224.66 178.069 224.66 177.674C224.66 177.278 224.34 176.958 223.944 176.958Z" fill="#F9ECFD"/>
</g>
<g clip-path="url(#clip183_33_974)">
<path d="M143.79 251.081C142.465 251.081 141.391 252.155 141.391 253.481C141.391 254.806 142.465 255.88 143.79 255.88C145.115 255.88 146.189 254.806 146.189 253.481C146.189 252.155 145.115 251.081 143.79 251.081Z" fill="#F9ECFD"/>
</g>
<g clip-path="url(#clip184_33_974)">
<path d="M146.172 271.163C145.72 271.163 145.353 271.53 145.353 271.982C145.353 272.434 145.72 272.8 146.172 272.8C146.624 272.8 146.99 272.434 146.99 271.982C146.99 271.53 146.624 271.163 146.172 271.163Z" fill="#F9ECFD"/>
</g>
<g clip-path="url(#clip185_33_974)">
<path d="M137.707 269.983C137.291 269.983 136.953 270.321 136.953 270.737C136.953 271.153 137.291 271.49 137.707 271.49C138.123 271.49 138.46 271.153 138.46 270.737C138.46 270.321 138.123 269.983 137.707 269.983Z" fill="#F9ECFD"/>
</g>
<g clip-path="url(#clip186_33_974)">
<path d="M118.505 276.37C118.028 276.37 117.64 276.757 117.64 277.235C117.64 277.713 118.028 278.1 118.505 278.1C118.983 278.1 119.37 277.713 119.37 277.235C119.37 276.757 118.983 276.37 118.505 276.37Z" fill="#F9ECFD"/>
</g>
<g clip-path="url(#clip187_33_974)">
<path d="M119.803 281.618C119.408 281.618 119.087 281.938 119.087 282.334C119.087 282.729 119.408 283.05 119.803 283.05C120.199 283.05 120.52 282.729 120.52 282.334C120.52 281.938 120.199 281.618 119.803 281.618Z" fill="#F9ECFD"/>
</g>
<g clip-path="url(#clip188_33_974)">
<path d="M125.864 284.518C125.468 284.518 125.148 284.838 125.148 285.234C125.148 285.629 125.468 285.95 125.864 285.95C126.259 285.95 126.58 285.629 126.58 285.234C126.58 284.838 126.259 284.518 125.864 284.518Z" fill="#F9ECFD"/>
</g>
<g clip-path="url(#clip189_33_974)">
<path d="M126.504 281.028C126.108 281.028 125.788 281.348 125.788 281.744C125.788 282.139 126.108 282.46 126.504 282.46C126.899 282.46 127.22 282.139 127.22 281.744C127.22 281.348 126.899 281.028 126.504 281.028Z" fill="#F9ECFD"/>
</g>
<g clip-path="url(#clip190_33_974)">
<path d="M114.754 238.188C114.358 238.188 114.038 238.508 114.038 238.904C114.038 239.299 114.358 239.62 114.754 239.62C115.149 239.62 115.47 239.299 115.47 238.904C115.47 238.508 115.149 238.188 114.754 238.188Z" fill="#F9ECFD"/>
</g>
<g clip-path="url(#clip191_33_974)">
<path d="M100.614 216.088C100.218 216.088 99.8979 216.408 99.8979 216.804C99.8979 217.199 100.218 217.52 100.614 217.52C101.009 217.52 101.33 217.199 101.33 216.804C101.33 216.408 101.009 216.088 100.614 216.088Z" fill="#F9ECFD"/>
</g>
<g clip-path="url(#clip192_33_974)">
<path d="M59.1941 218.088C58.7986 218.088 58.478 218.408 58.478 218.804C58.478 219.199 58.7986 219.52 59.1941 219.52C59.5895 219.52 59.9102 219.199 59.9102 218.804C59.9102 218.408 59.5895 218.088 59.1941 218.088Z" fill="#F9ECFD"/>
</g>
<g clip-path="url(#clip193_33_974)">
<path d="M320.914 265.208C320.518 265.208 320.198 265.528 320.198 265.924C320.198 266.319 320.518 266.64 320.914 266.64C321.309 266.64 321.63 266.319 321.63 265.924C321.63 265.528 321.309 265.208 320.914 265.208Z" fill="#F9ECFD"/>
</g>
<g clip-path="url(#clip194_33_974)">
<path d="M377.486 291.062C376.34 291.062 375.412 291.991 375.412 293.136C375.412 294.281 376.34 295.21 377.486 295.21C378.631 295.21 379.56 294.281 379.56 293.136C379.56 291.991 378.631 291.062 377.486 291.062Z" fill="#F9ECFD"/>
</g>
<g clip-path="url(#clip195_33_974)">
<path d="M394.122 304.415C393.516 304.415 393.025 304.907 393.025 305.513C393.025 306.119 393.516 306.61 394.122 306.61C394.728 306.61 395.22 306.119 395.22 305.513C395.22 304.907 394.728 304.415 394.122 304.415Z" fill="#F9ECFD"/>
</g>
<g clip-path="url(#clip196_33_974)">
<path d="M417.314 297.848C416.919 297.848 416.598 298.168 416.598 298.564C416.598 298.959 416.919 299.28 417.314 299.28C417.71 299.28 418.03 298.959 418.03 298.564C418.03 298.168 417.71 297.848 417.314 297.848Z" fill="#F9ECFD"/>
</g>
<g clip-path="url(#clip197_33_974)">
<path d="M427.734 316.768C427.339 316.768 427.018 317.088 427.018 317.484C427.018 317.879 427.339 318.2 427.734 318.2C428.13 318.2 428.45 317.879 428.45 317.484C428.45 317.088 428.13 316.768 427.734 316.768Z" fill="#F9ECFD"/>
</g>
<g clip-path="url(#clip198_33_974)">
<path d="M411.134 328.058C410.738 328.058 410.417 328.378 410.417 328.774C410.417 329.169 410.738 329.49 411.134 329.49C411.529 329.49 411.85 329.169 411.85 328.774C411.85 328.378 411.529 328.058 411.134 328.058Z" fill="#F9ECFD"/>
</g>
<g clip-path="url(#clip199_33_974)">
<path d="M442.143 329.318C441.748 329.318 441.427 329.638 441.427 330.034C441.427 330.429 441.748 330.75 442.143 330.75C442.539 330.75 442.859 330.429 442.859 330.034C442.859 329.638 442.539 329.318 442.143 329.318Z" fill="#F9ECFD"/>
</g>
<g clip-path="url(#clip200_33_974)">
<path d="M445.234 345.498C444.839 345.498 444.518 345.818 444.518 346.214C444.518 346.609 444.839 346.93 445.234 346.93C445.63 346.93 445.95 346.609 445.95 346.214C445.95 345.818 445.63 345.498 445.234 345.498Z" fill="#F9ECFD"/>
</g>
<g clip-path="url(#clip201_33_974)">
<path d="M446.393 326.158C445.998 326.158 445.677 326.478 445.677 326.874C445.677 327.269 445.998 327.59 446.393 327.59C446.789 327.59 447.109 327.269 447.109 326.874C447.109 326.478 446.789 326.158 446.393 326.158Z" fill="#F9ECFD"/>
</g>
<g clip-path="url(#clip202_33_974)">
<path d="M421.984 259.098C421.589 259.098 421.268 259.418 421.268 259.814C421.268 260.209 421.589 260.53 421.984 260.53C422.38 260.53 422.7 260.209 422.7 259.814C422.7 259.418 422.38 259.098 421.984 259.098Z" fill="#F9ECFD"/>
</g>
<g clip-path="url(#clip203_33_974)">
<path d="M436.664 270.568C436.268 270.568 435.948 270.888 435.948 271.284C435.948 271.679 436.268 272 436.664 272C437.059 272 437.38 271.679 437.38 271.284C437.38 270.888 437.059 270.568 436.664 270.568Z" fill="#F9ECFD"/>
</g>
<g clip-path="url(#clip204_33_974)">
<path d="M468.754 289.478C468.358 289.478 468.038 289.798 468.038 290.194C468.038 290.589 468.358 290.91 468.754 290.91C469.149 290.91 469.47 290.589 469.47 290.194C469.47 289.798 469.149 289.478 468.754 289.478Z" fill="#F9ECFD"/>
</g>
<g clip-path="url(#clip205_33_974)">
<path d="M459.854 275.968C459.459 275.968 459.138 276.288 459.138 276.684C459.138 277.079 459.459 277.4 459.854 277.4C460.25 277.4 460.57 277.079 460.57 276.684C460.57 276.288 460.25 275.968 459.854 275.968Z" fill="#F9ECFD"/>
</g>
<g clip-path="url(#clip206_33_974)">
<path d="M444.824 244.148C444.428 244.148 444.108 244.468 444.108 244.864C444.108 245.259 444.428 245.58 444.824 245.58C445.219 245.58 445.54 245.259 445.54 244.864C445.54 244.468 445.219 244.148 444.824 244.148Z" fill="#F9ECFD"/>
</g>
<g clip-path="url(#clip207_33_974)">
<path d="M496.734 230.988C496.339 230.988 496.018 231.308 496.018 231.704C496.018 232.099 496.339 232.42 496.734 232.42C497.13 232.42 497.45 232.099 497.45 231.704C497.45 231.308 497.13 230.988 496.734 230.988Z" fill="#F9ECFD"/>
</g>
<g clip-path="url(#clip208_33_974)">
<path d="M316.433 335.808C316.038 335.808 315.717 336.128 315.717 336.524C315.717 336.919 316.038 337.24 316.433 337.24C316.829 337.24 317.149 336.919 317.149 336.524C317.149 336.128 316.829 335.808 316.433 335.808Z" fill="#F9ECFD"/>
</g>
<g clip-path="url(#clip209_33_974)">
<path d="M314.744 357.388C314.348 357.388 314.028 357.708 314.028 358.104C314.028 358.499 314.348 358.82 314.744 358.82C315.139 358.82 315.46 358.499 315.46 358.104C315.46 357.708 315.139 357.388 314.744 357.388Z" fill="#F9ECFD"/>
</g>
<g clip-path="url(#clip210_33_974)">
<path d="M319.034 364.618C318.638 364.618 318.318 364.938 318.318 365.334C318.318 365.729 318.638 366.05 319.034 366.05C319.429 366.05 319.75 365.729 319.75 365.334C319.75 364.938 319.429 364.618 319.034 364.618Z" fill="#F9ECFD"/>
</g>
<g clip-path="url(#clip211_33_974)">
<path d="M334.424 367.968C334.028 367.968 333.707 368.288 333.707 368.684C333.707 369.079 334.028 369.4 334.424 369.4C334.819 369.4 335.14 369.079 335.14 368.684C335.14 368.288 334.819 367.968 334.424 367.968Z" fill="#F9ECFD"/>
</g>
</g>
<defs>
<linearGradient id="paint0_linear_33_974" x1="5.89972" y1="-7.89" x2="565.9" y2="372.11" gradientUnits="userSpaceOnUse">
<stop stop-color="#050032"/>
<stop offset="0.23" stop-color="#0A0839"/>
<stop offset="0.59" stop-color="#171D4E"/>
<stop offset="1" stop-color="#2C3D6D"/>
</linearGradient>
<clipPath id="clip0_33_974">
<rect width="1.4245" height="1.4245" fill="white" transform="translate(363.89 219.74)"/>
</clipPath>
<clipPath id="clip1_33_974">
<rect width="1.4245" height="1.4245" fill="white" transform="translate(335.89 220.9)"/>
</clipPath>
<clipPath id="clip2_33_974">
<rect width="2.0535" height="2.0535" fill="white" transform="translate(299.09 233.35)"/>
</clipPath>
<clipPath id="clip3_33_974">
<rect width="2.257" height="2.257" fill="white" transform="translate(298.96 242.42)"/>
</clipPath>
<clipPath id="clip4_33_974">
<rect width="1.4245" height="1.4245" fill="white" transform="translate(322.38 251.01)"/>
</clipPath>
<clipPath id="clip5_33_974">
<rect width="1.4245" height="1.4245" fill="white" transform="translate(373.85 267.38)"/>
</clipPath>
<clipPath id="clip6_33_974">
<rect width="1.4245" height="1.4245" fill="white" transform="translate(406.979 289.94)"/>
</clipPath>
<clipPath id="clip7_33_974">
<rect width="1.4245" height="1.4245" fill="white" transform="translate(420.13 322.66)"/>
</clipPath>
<clipPath id="clip8_33_974">
<rect width="1.4245" height="1.4245" fill="white" transform="translate(368.92 336.93)"/>
</clipPath>
<clipPath id="clip9_33_974">
<rect width="1.4245" height="1.4245" fill="white" transform="translate(300.069 337.9)"/>
</clipPath>
<clipPath id="clip10_33_974">
<rect width="1.4245" height="1.4245" fill="white" transform="translate(294.29 340.27)"/>
</clipPath>
<clipPath id="clip11_33_974">
<rect width="1.4245" height="1.4245" fill="white" transform="translate(304.01 331.05)"/>
</clipPath>
<clipPath id="clip12_33_974">
<rect width="2.1275" height="2.1275" fill="white" transform="translate(352.79 285.87)"/>
</clipPath>
<clipPath id="clip13_33_974">
<rect width="1.4245" height="1.4245" fill="white" transform="translate(388.71 298.76)"/>
</clipPath>
<clipPath id="clip14_33_974">
<rect width="3.2745" height="3.2745" fill="white" transform="translate(455.53 297.47)"/>
</clipPath>
<clipPath id="clip15_33_974">
<rect width="1.4245" height="1.4245" fill="white" transform="translate(522.49 290.94)"/>
</clipPath>
<clipPath id="clip16_33_974">
<rect width="1.4245" height="1.4245" fill="white" transform="translate(573.54 235.38)"/>
</clipPath>
<clipPath id="clip17_33_974">
<rect width="1.4245" height="1.4245" fill="white" transform="translate(550.77 221.91)"/>
</clipPath>
<clipPath id="clip18_33_974">
<rect width="1.4245" height="1.4245" fill="white" transform="translate(551 197.03)"/>
</clipPath>
<clipPath id="clip19_33_974">
<rect width="2.9045" height="2.9045" fill="white" transform="translate(515.55 202.26)"/>
</clipPath>
<clipPath id="clip20_33_974">
<rect width="4.2365" height="4.2365" fill="white" transform="translate(514.88 208.28)"/>
</clipPath>
<clipPath id="clip21_33_974">
<rect width="1.4245" height="1.4245" fill="white" transform="translate(491.16 208.03)"/>
</clipPath>
<clipPath id="clip22_33_974">
<rect width="1.4245" height="1.4245" fill="white" transform="translate(472.47 175.4)"/>
</clipPath>
<clipPath id="clip23_33_974">
<rect width="1.4245" height="1.4245" fill="white" transform="translate(442.59 146.79)"/>
</clipPath>
<clipPath id="clip24_33_974">
<rect width="1.4245" height="1.4245" fill="white" transform="translate(409.83 135.5)"/>
</clipPath>
<clipPath id="clip25_33_974">
<rect width="1.4245" height="1.4245" fill="white" transform="translate(394.649 125.88)"/>
</clipPath>
<clipPath id="clip26_33_974">
<rect width="1.4245" height="1.4245" fill="white" transform="translate(296.26 156.93)"/>
</clipPath>
<clipPath id="clip27_33_974">
<rect width="1.4245" height="1.4245" fill="white" transform="translate(258.02 145.56)"/>
</clipPath>
<clipPath id="clip28_33_974">
<rect width="1.4245" height="1.4245" fill="white" transform="translate(313.02 92.64)"/>
</clipPath>
<clipPath id="clip29_33_974">
<rect width="1.4245" height="1.4245" fill="white" transform="translate(394.81 81.09)"/>
</clipPath>
<clipPath id="clip30_33_974">
<rect width="1.4245" height="1.4245" fill="white" transform="translate(434.66 76.59)"/>
</clipPath>
<clipPath id="clip31_33_974">
<rect width="1.4245" height="1.4245" fill="white" transform="translate(452.99 73.29)"/>
</clipPath>
<clipPath id="clip32_33_974">
<rect width="1.4245" height="1.4245" fill="white" transform="translate(528.439 42.52)"/>
</clipPath>
<clipPath id="clip33_33_974">
<rect width="1.4245" height="1.4245" fill="white" transform="translate(518.49 70.12)"/>
</clipPath>
<clipPath id="clip34_33_974">
<rect width="1.4245" height="1.4245" fill="white" transform="translate(445.3 105)"/>
</clipPath>
<clipPath id="clip35_33_974">
<rect width="1.4245" height="1.4245" fill="white" transform="translate(326.6 133.91)"/>
</clipPath>
<clipPath id="clip36_33_974">
<rect width="1.4245" height="1.4245" fill="white" transform="translate(336.16 161.23)"/>
</clipPath>
<clipPath id="clip37_33_974">
<rect width="3.5335" height="3.5335" fill="white" transform="translate(314.74 177.24)"/>
</clipPath>
<clipPath id="clip38_33_974">
<rect width="1.4245" height="1.4245" fill="white" transform="translate(258.46 197.44)"/>
</clipPath>
<clipPath id="clip39_33_974">
<rect width="1.4245" height="1.4245" fill="white" transform="translate(195.06 203.35)"/>
</clipPath>
<clipPath id="clip40_33_974">
<rect width="2.442" height="2.442" fill="white" transform="translate(166.729 234.68)"/>
</clipPath>
<clipPath id="clip41_33_974">
<rect width="2.775" height="2.775" fill="white" transform="translate(165.37 247.03)"/>
</clipPath>
<clipPath id="clip42_33_974">
<rect width="1.4245" height="1.4245" fill="white" transform="translate(146.5 267.53)"/>
</clipPath>
<clipPath id="clip43_33_974">
<rect width="1.4245" height="1.4245" fill="white" transform="translate(133.05 301.84)"/>
</clipPath>
<clipPath id="clip44_33_974">
<rect width="1.4245" height="1.4245" fill="white" transform="translate(140.79 289.85)"/>
</clipPath>
<clipPath id="clip45_33_974">
<rect width="1.4245" height="1.4245" fill="white" transform="translate(136.58 295.94)"/>
</clipPath>
<clipPath id="clip46_33_974">
<rect width="1.4245" height="1.4245" fill="white" transform="translate(154.33 298.65)"/>
</clipPath>
<clipPath id="clip47_33_974">
<rect width="1.4245" height="1.4245" fill="white" transform="translate(147.17 281.69)"/>
</clipPath>
<clipPath id="clip48_33_974">
<rect width="1.4245" height="1.4245" fill="white" transform="translate(142.43 278.77)"/>
</clipPath>
<clipPath id="clip49_33_974">
<rect width="1.4245" height="1.4245" fill="white" transform="translate(217.34 340.02)"/>
</clipPath>
<clipPath id="clip50_33_974">
<rect width="2.1645" height="2.1645" fill="white" transform="translate(244.25 351.68)"/>
</clipPath>
<clipPath id="clip51_33_974">
<rect width="1.813" height="1.813" fill="white" transform="translate(258 357.61)"/>
</clipPath>
<clipPath id="clip52_33_974">
<rect width="3.9405" height="3.9405" fill="white" transform="translate(254.59 326.44)"/>
</clipPath>
<clipPath id="clip53_33_974">
<rect width="1.4245" height="1.4245" fill="white" transform="translate(251.319 310.09)"/>
</clipPath>
<clipPath id="clip54_33_974">
<rect width="2.664" height="2.664" fill="white" transform="translate(268.97 319.41)"/>
</clipPath>
<clipPath id="clip55_33_974">
<rect width="1.4245" height="1.4245" fill="white" transform="translate(314.95 349.14)"/>
</clipPath>
<clipPath id="clip56_33_974">
<rect width="1.4245" height="1.4245" fill="white" transform="translate(241.16 355.99)"/>
</clipPath>
<clipPath id="clip57_33_974">
<rect width="2.0165" height="2.0165" fill="white" transform="translate(199.319 364.89)"/>
</clipPath>
<clipPath id="clip58_33_974">
<rect width="1.4245" height="1.4245" fill="white" transform="translate(188.55 358.76)"/>
</clipPath>
<clipPath id="clip59_33_974">
<rect width="2.8305" height="2.8305" fill="white" transform="translate(171.35 362.17)"/>
</clipPath>
<clipPath id="clip60_33_974">
<rect width="1.4245" height="1.4245" fill="white" transform="translate(284.55 357.79)"/>
</clipPath>
<clipPath id="clip61_33_974">
<rect width="1.4245" height="1.4245" fill="white" transform="translate(311.29 353.89)"/>
</clipPath>
<clipPath id="clip62_33_974">
<rect width="1.4245" height="1.4245" fill="white" transform="translate(348.92 366.82)"/>
</clipPath>
<clipPath id="clip63_33_974">
<rect width="1.4245" height="1.4245" fill="white" transform="translate(384.74 345.91)"/>
</clipPath>
<clipPath id="clip64_33_974">
<rect width="1.4245" height="1.4245" fill="white" transform="translate(383.8 358.08)"/>
</clipPath>
<clipPath id="clip65_33_974">
<rect width="1.4245" height="1.4245" fill="white" transform="translate(371.75 343.68)"/>
</clipPath>
<clipPath id="clip66_33_974">
<rect width="1.4245" height="1.4245" fill="white" transform="translate(373.46 352.86)"/>
</clipPath>
<clipPath id="clip67_33_974">
<rect width="1.4245" height="1.4245" fill="white" transform="translate(403.32 354.11)"/>
</clipPath>
<clipPath id="clip68_33_974">
<rect width="1.4245" height="1.4245" fill="white" transform="translate(506.28 367.21)"/>
</clipPath>
<clipPath id="clip69_33_974">
<rect width="1.4245" height="1.4245" fill="white" transform="translate(521.77 366.4)"/>
</clipPath>
<clipPath id="clip70_33_974">
<rect width="1.4245" height="1.4245" fill="white" transform="translate(550.12 367.99)"/>
</clipPath>
<clipPath id="clip71_33_974">
<rect width="1.4245" height="1.4245" fill="white" transform="translate(507.34 343.2)"/>
</clipPath>
<clipPath id="clip72_33_974">
<rect width="1.4245" height="1.4245" fill="white" transform="translate(446.3 230.77)"/>
</clipPath>
<clipPath id="clip73_33_974">
<rect width="1.4245" height="1.4245" fill="white" transform="translate(429.42 248.14)"/>
</clipPath>
<clipPath id="clip74_33_974">
<rect width="1.4245" height="1.4245" fill="white" transform="translate(423.02 203.85)"/>
</clipPath>
<clipPath id="clip75_33_974">
<rect width="1.4245" height="1.4245" fill="white" transform="translate(425.859 193.49)"/>
</clipPath>
<clipPath id="clip76_33_974">
<rect width="1.4245" height="1.4245" fill="white" transform="translate(411.27 191.11)"/>
</clipPath>
<clipPath id="clip77_33_974">
<rect width="4.773" height="4.773" fill="white" transform="translate(489.74 113.63)"/>
</clipPath>
<clipPath id="clip78_33_974">
<rect width="1.628" height="1.628" fill="white" transform="translate(488.93 96.7)"/>
</clipPath>
<clipPath id="clip79_33_974">
<rect width="1.4985" height="1.4985" fill="white" transform="translate(497.47 98.01)"/>
</clipPath>
<clipPath id="clip80_33_974">
<rect width="1.7205" height="1.7205" fill="white" transform="translate(516.56 91.41)"/>
</clipPath>
<clipPath id="clip81_33_974">
<rect width="1.4245" height="1.4245" fill="white" transform="translate(515.399 86.45)"/>
</clipPath>
<clipPath id="clip82_33_974">
<rect width="1.4245" height="1.4245" fill="white" transform="translate(509.35 83.55)"/>
</clipPath>
<clipPath id="clip83_33_974">
<rect width="1.4245" height="1.4245" fill="white" transform="translate(508.71 87.05)"/>
</clipPath>
<clipPath id="clip84_33_974">
<rect width="1.4245" height="1.4245" fill="white" transform="translate(520.46 129.88)"/>
</clipPath>
<clipPath id="clip85_33_974">
<rect width="1.4245" height="1.4245" fill="white" transform="translate(534.6 151.99)"/>
</clipPath>
<clipPath id="clip86_33_974">
<rect width="1.4245" height="1.4245" fill="white" transform="translate(576.02 149.99)"/>
</clipPath>
<clipPath id="clip87_33_974">
<rect width="1.4245" height="1.4245" fill="white" transform="translate(314.3 102.87)"/>
</clipPath>
<clipPath id="clip88_33_974">
<rect width="4.1255" height="4.1255" fill="white" transform="translate(256.37 74.29)"/>
</clipPath>
<clipPath id="clip89_33_974">
<rect width="2.183" height="2.183" fill="white" transform="translate(240.71 62.9)"/>
</clipPath>
<clipPath id="clip90_33_974">
<rect width="1.4245" height="1.4245" fill="white" transform="translate(217.899 70.23)"/>
</clipPath>
<clipPath id="clip91_33_974">
<rect width="1.4245" height="1.4245" fill="white" transform="translate(207.479 51.3)"/>
</clipPath>
<clipPath id="clip92_33_974">
<rect width="1.4245" height="1.4245" fill="white" transform="translate(224.08 40.02)"/>
</clipPath>
<clipPath id="clip93_33_974">
<rect width="1.4245" height="1.4245" fill="white" transform="translate(193.069 38.76)"/>
</clipPath>
<clipPath id="clip94_33_974">
<rect width="1.4245" height="1.4245" fill="white" transform="translate(189.979 22.57)"/>
</clipPath>
<clipPath id="clip95_33_974">
<rect width="1.4245" height="1.4245" fill="white" transform="translate(188.819 41.91)"/>
</clipPath>
<clipPath id="clip96_33_974">
<rect width="1.4245" height="1.4245" fill="white" transform="translate(213.229 108.98)"/>
</clipPath>
<clipPath id="clip97_33_974">
<rect width="1.4245" height="1.4245" fill="white" transform="translate(198.54 97.51)"/>
</clipPath>
<clipPath id="clip98_33_974">
<rect width="1.4245" height="1.4245" fill="white" transform="translate(166.46 78.6)"/>
</clipPath>
<clipPath id="clip99_33_974">
<rect width="1.4245" height="1.4245" fill="white" transform="translate(175.359 92.1)"/>
</clipPath>
<clipPath id="clip100_33_974">
<rect width="1.4245" height="1.4245" fill="white" transform="translate(190.39 123.92)"/>
</clipPath>
<clipPath id="clip101_33_974">
<rect width="1.4245" height="1.4245" fill="white" transform="translate(138.47 137.09)"/>
</clipPath>
<clipPath id="clip102_33_974">
<rect width="1.4245" height="1.4245" fill="white" transform="translate(318.78 32.27)"/>
</clipPath>
<clipPath id="clip103_33_974">
<rect width="1.4245" height="1.4245" fill="white" transform="translate(320.47 10.69)"/>
</clipPath>
<clipPath id="clip104_33_974">
<rect width="1.4245" height="1.4245" fill="white" transform="translate(316.18 3.45999)"/>
</clipPath>
<clipPath id="clip105_33_974">
<rect width="1.4245" height="1.4245" fill="white" transform="translate(300.79 0.109985)"/>
</clipPath>
<clipPath id="clip106_33_974">
<rect width="1.4245" height="1.4245" fill="white" transform="matrix(-1 0 0 -1 272.04 149.77)"/>
</clipPath>
<clipPath id="clip107_33_974">
<rect width="1.4245" height="1.4245" fill="white" transform="matrix(-1 0 0 -1 300.04 148.61)"/>
</clipPath>
<clipPath id="clip108_33_974">
<rect width="2.0535" height="2.0535" fill="white" transform="matrix(-1 0 0 -1 336.84 136.16)"/>
</clipPath>
<clipPath id="clip109_33_974">
<rect width="2.257" height="2.257" fill="white" transform="matrix(-1 0 0 -1 336.97 127.08)"/>
</clipPath>
<clipPath id="clip110_33_974">
<rect width="1.4245" height="1.4245" fill="white" transform="matrix(-1 0 0 -1 313.54 118.5)"/>
</clipPath>
<clipPath id="clip111_33_974">
<rect width="1.4245" height="1.4245" fill="white" transform="matrix(-1 0 0 -1 262.08 102.13)"/>
</clipPath>
<clipPath id="clip112_33_974">
<rect width="1.4245" height="1.4245" fill="white" transform="matrix(-1 0 0 -1 228.95 79.57)"/>
</clipPath>
<clipPath id="clip113_33_974">
<rect width="1.4245" height="1.4245" fill="white" transform="matrix(-1 0 0 -1 215.8 46.84)"/>
</clipPath>
<clipPath id="clip114_33_974">
<rect width="1.4245" height="1.4245" fill="white" transform="matrix(-1 0 0 -1 267.01 32.58)"/>
</clipPath>
<clipPath id="clip115_33_974">
<rect width="1.4245" height="1.4245" fill="white" transform="matrix(-1 0 0 -1 335.859 31.61)"/>
</clipPath>
<clipPath id="clip116_33_974">
<rect width="1.4245" height="1.4245" fill="white" transform="matrix(-1 0 0 -1 341.64 29.24)"/>
</clipPath>
<clipPath id="clip117_33_974">
<rect width="1.4245" height="1.4245" fill="white" transform="matrix(-1 0 0 -1 331.91 38.46)"/>
</clipPath>
<clipPath id="clip118_33_974">
<rect width="2.1275" height="2.1275" fill="white" transform="matrix(-1 0 0 -1 283.14 83.63)"/>
</clipPath>
<clipPath id="clip119_33_974">
<rect width="1.4245" height="1.4245" fill="white" transform="matrix(-1 0 0 -1 247.22 70.75)"/>
</clipPath>
<clipPath id="clip120_33_974">
<rect width="3.2745" height="3.2745" fill="white" transform="matrix(-1 0 0 -1 180.399 72.04)"/>
</clipPath>
<clipPath id="clip121_33_974">
<rect width="1.4245" height="1.4245" fill="white" transform="matrix(-1 0 0 -1 113.43 78.57)"/>
</clipPath>
<clipPath id="clip122_33_974">
<rect width="1.4245" height="1.4245" fill="white" transform="matrix(-1 0 0 -1 62.3896 134.12)"/>
</clipPath>
<clipPath id="clip123_33_974">
<rect width="1.4245" height="1.4245" fill="white" transform="matrix(-1 0 0 -1 85.1602 147.6)"/>
</clipPath>
<clipPath id="clip124_33_974">
<rect width="1.4245" height="1.4245" fill="white" transform="matrix(-1 0 0 -1 84.9297 172.47)"/>
</clipPath>
<clipPath id="clip125_33_974">
<rect width="2.9045" height="2.9045" fill="white" transform="matrix(-1 0 0 -1 120.38 167.24)"/>
</clipPath>
<clipPath id="clip126_33_974">
<rect width="4.2365" height="4.2365" fill="white" transform="matrix(-1 0 0 -1 121.05 161.22)"/>
</clipPath>
<clipPath id="clip127_33_974">
<rect width="1.4245" height="1.4245" fill="white" transform="matrix(-1 0 0 -1 144.77 161.48)"/>
</clipPath>
<clipPath id="clip128_33_974">
<rect width="1.4245" height="1.4245" fill="white" transform="matrix(-1 0 0 -1 163.46 194.11)"/>
</clipPath>
<clipPath id="clip129_33_974">
<rect width="1.4245" height="1.4245" fill="white" transform="matrix(-1 0 0 -1 193.33 222.72)"/>
</clipPath>
<clipPath id="clip130_33_974">
<rect width="1.4245" height="1.4245" fill="white" transform="matrix(-1 0 0 -1 226.1 234.01)"/>
</clipPath>
<clipPath id="clip131_33_974">
<rect width="1.4245" height="1.4245" fill="white" transform="matrix(-1 0 0 -1 241.28 243.63)"/>
</clipPath>
<clipPath id="clip132_33_974">
<rect width="1.4245" height="1.4245" fill="white" transform="matrix(-1 0 0 -1 339.67 212.58)"/>
</clipPath>
<clipPath id="clip133_33_974">
<rect width="1.4245" height="1.4245" fill="white" transform="matrix(-1 0 0 -1 377.91 223.95)"/>
</clipPath>
<clipPath id="clip134_33_974">
<rect width="1.4245" height="1.4245" fill="white" transform="matrix(-1 0 0 -1 322.91 276.87)"/>
</clipPath>
<clipPath id="clip135_33_974">
<rect width="1.4245" height="1.4245" fill="white" transform="matrix(-1 0 0 -1 241.12 288.41)"/>
</clipPath>
<clipPath id="clip136_33_974">
<rect width="1.4245" height="1.4245" fill="white" transform="matrix(-1 0 0 -1 201.26 292.92)"/>
</clipPath>
<clipPath id="clip137_33_974">
<rect width="1.4245" height="1.4245" fill="white" transform="matrix(-1 0 0 -1 182.939 296.22)"/>
</clipPath>
<clipPath id="clip138_33_974">
<rect width="1.4245" height="1.4245" fill="white" transform="matrix(-1 0 0 -1 107.49 326.99)"/>
</clipPath>
<clipPath id="clip139_33_974">
<rect width="1.4245" height="1.4245" fill="white" transform="matrix(-1 0 0 -1 117.439 299.38)"/>
</clipPath>
<clipPath id="clip140_33_974">
<rect width="1.4245" height="1.4245" fill="white" transform="matrix(-1 0 0 -1 190.62 264.51)"/>
</clipPath>
<clipPath id="clip141_33_974">
<rect width="1.4245" height="1.4245" fill="white" transform="matrix(-1 0 0 -1 309.33 235.6)"/>
</clipPath>
<clipPath id="clip142_33_974">
<rect width="1.4245" height="1.4245" fill="white" transform="matrix(-1 0 0 -1 299.76 208.27)"/>
</clipPath>
<clipPath id="clip143_33_974">
<rect width="3.5335" height="3.5335" fill="white" transform="matrix(-1 0 0 -1 321.189 192.26)"/>
</clipPath>
<clipPath id="clip144_33_974">
<rect width="1.4245" height="1.4245" fill="white" transform="matrix(-1 0 0 -1 377.47 172.06)"/>
</clipPath>
<clipPath id="clip145_33_974">
<rect width="1.4245" height="1.4245" fill="white" transform="matrix(-1 0 0 -1 440.87 166.16)"/>
</clipPath>
<clipPath id="clip146_33_974">
<rect width="2.442" height="2.442" fill="white" transform="matrix(-1 0 0 -1 469.2 134.83)"/>
</clipPath>
<clipPath id="clip147_33_974">
<rect width="2.775" height="2.775" fill="white" transform="matrix(-1 0 0 -1 470.56 122.47)"/>
</clipPath>
<clipPath id="clip148_33_974">
<rect width="1.4245" height="1.4245" fill="white" transform="matrix(-1 0 0 -1 489.43 101.98)"/>
</clipPath>
<clipPath id="clip149_33_974">
<rect width="1.4245" height="1.4245" fill="white" transform="matrix(-1 0 0 -1 502.88 67.66)"/>
</clipPath>
<clipPath id="clip150_33_974">
<rect width="1.4245" height="1.4245" fill="white" transform="matrix(-1 0 0 -1 495.13 79.65)"/>
</clipPath>
<clipPath id="clip151_33_974">
<rect width="1.4245" height="1.4245" fill="white" transform="matrix(-1 0 0 -1 499.34 73.57)"/>
</clipPath>
<clipPath id="clip152_33_974">
<rect width="1.4245" height="1.4245" fill="white" transform="matrix(-1 0 0 -1 481.6 70.85)"/>
</clipPath>
<clipPath id="clip153_33_974">
<rect width="1.4245" height="1.4245" fill="white" transform="matrix(-1 0 0 -1 488.75 87.82)"/>
</clipPath>
<clipPath id="clip154_33_974">
<rect width="1.4245" height="1.4245" fill="white" transform="matrix(-1 0 0 -1 493.5 90.74)"/>
</clipPath>
<clipPath id="clip155_33_974">
<rect width="1.4245" height="1.4245" fill="white" transform="matrix(-1 0 0 -1 418.59 29.49)"/>
</clipPath>
<clipPath id="clip156_33_974">
<rect width="2.1645" height="2.1645" fill="white" transform="matrix(-1 0 0 -1 391.68 17.82)"/>
</clipPath>
<clipPath id="clip157_33_974">
<rect width="1.813" height="1.813" fill="white" transform="matrix(-1 0 0 -1 377.93 11.9)"/>
</clipPath>
<clipPath id="clip158_33_974">
<rect width="3.9405" height="3.9405" fill="white" transform="matrix(-1 0 0 -1 381.34 43.07)"/>
</clipPath>
<clipPath id="clip159_33_974">
<rect width="1.4245" height="1.4245" fill="white" transform="matrix(-1 0 0 -1 384.609 59.41)"/>
</clipPath>
<clipPath id="clip160_33_974">
<rect width="2.664" height="2.664" fill="white" transform="matrix(-1 0 0 -1 366.95 50.1)"/>
</clipPath>
<clipPath id="clip161_33_974">
<rect width="1.4245" height="1.4245" fill="white" transform="matrix(-1 0 0 -1 320.979 20.37)"/>
</clipPath>
<clipPath id="clip162_33_974">
<rect width="1.4245" height="1.4245" fill="white" transform="matrix(-1 0 0 -1 394.77 13.52)"/>
</clipPath>
<clipPath id="clip163_33_974">
<rect width="2.0165" height="2.0165" fill="white" transform="matrix(-1 0 0 -1 436.609 4.60999)"/>
</clipPath>
<clipPath id="clip164_33_974">
<rect width="1.4245" height="1.4245" fill="white" transform="matrix(-1 0 0 -1 447.38 10.75)"/>
</clipPath>
<clipPath id="clip165_33_974">
<rect width="2.8305" height="2.8305" fill="white" transform="matrix(-1 0 0 -1 464.58 7.32999)"/>
</clipPath>
<clipPath id="clip166_33_974">
<rect width="1.4245" height="1.4245" fill="white" transform="matrix(-1 0 0 -1 351.38 11.72)"/>
</clipPath>
<clipPath id="clip167_33_974">
<rect width="1.4245" height="1.4245" fill="white" transform="matrix(-1 0 0 -1 324.64 15.61)"/>
</clipPath>
<clipPath id="clip168_33_974">
<rect width="1.4245" height="1.4245" fill="white" transform="matrix(-1 0 0 -1 287.01 2.67999)"/>
</clipPath>
<clipPath id="clip169_33_974">
<rect width="1.4245" height="1.4245" fill="white" transform="matrix(-1 0 0 -1 251.18 23.59)"/>
</clipPath>
<clipPath id="clip170_33_974">
<rect width="1.4245" height="1.4245" fill="white" transform="matrix(-1 0 0 -1 252.13 11.43)"/>
</clipPath>
<clipPath id="clip171_33_974">
<rect width="1.4245" height="1.4245" fill="white" transform="matrix(-1 0 0 -1 264.18 25.82)"/>
</clipPath>
<clipPath id="clip172_33_974">
<rect width="1.4245" height="1.4245" fill="white" transform="matrix(-1 0 0 -1 262.47 16.64)"/>
</clipPath>
<clipPath id="clip173_33_974">
<rect width="1.4245" height="1.4245" fill="white" transform="matrix(-1 0 0 -1 232.609 15.4)"/>
</clipPath>
<clipPath id="clip174_33_974">
<rect width="1.4245" height="1.4245" fill="white" transform="matrix(-1 0 0 -1 129.649 2.28999)"/>
</clipPath>
<clipPath id="clip175_33_974">
<rect width="1.4245" height="1.4245" fill="white" transform="matrix(-1 0 0 -1 114.16 3.10999)"/>
</clipPath>
<clipPath id="clip176_33_974">
<rect width="1.4245" height="1.4245" fill="white" transform="matrix(-1 0 0 -1 85.8096 1.51999)"/>
</clipPath>
<clipPath id="clip177_33_974">
<rect width="1.4245" height="1.4245" fill="white" transform="matrix(-1 0 0 -1 128.59 26.31)"/>
</clipPath>
<clipPath id="clip178_33_974">
<rect width="1.4245" height="1.4245" fill="white" transform="matrix(-1 0 0 -1 189.63 138.73)"/>
</clipPath>
<clipPath id="clip179_33_974">
<rect width="1.4245" height="1.4245" fill="white" transform="matrix(-1 0 0 -1 206.51 121.37)"/>
</clipPath>
<clipPath id="clip180_33_974">
<rect width="1.4245" height="1.4245" fill="white" transform="matrix(-1 0 0 -1 212.91 165.66)"/>
</clipPath>
<clipPath id="clip181_33_974">
<rect width="1.4245" height="1.4245" fill="white" transform="matrix(-1 0 0 -1 210.07 176.01)"/>
</clipPath>
<clipPath id="clip182_33_974">
<rect width="1.4245" height="1.4245" fill="white" transform="matrix(-1 0 0 -1 224.66 178.39)"/>
</clipPath>
<clipPath id="clip183_33_974">
<rect width="4.773" height="4.773" fill="white" transform="matrix(-1 0 0 -1 146.189 255.88)"/>
</clipPath>
<clipPath id="clip184_33_974">
<rect width="1.628" height="1.628" fill="white" transform="matrix(-1 0 0 -1 146.99 272.8)"/>
</clipPath>
<clipPath id="clip185_33_974">
<rect width="1.4985" height="1.4985" fill="white" transform="matrix(-1 0 0 -1 138.46 271.49)"/>
</clipPath>
<clipPath id="clip186_33_974">
<rect width="1.7205" height="1.7205" fill="white" transform="matrix(-1 0 0 -1 119.37 278.1)"/>
</clipPath>
<clipPath id="clip187_33_974">
<rect width="1.4245" height="1.4245" fill="white" transform="matrix(-1 0 0 -1 120.52 283.05)"/>
</clipPath>
<clipPath id="clip188_33_974">
<rect width="1.4245" height="1.4245" fill="white" transform="matrix(-1 0 0 -1 126.58 285.95)"/>
</clipPath>
<clipPath id="clip189_33_974">
<rect width="1.4245" height="1.4245" fill="white" transform="matrix(-1 0 0 -1 127.22 282.46)"/>
</clipPath>
<clipPath id="clip190_33_974">
<rect width="1.4245" height="1.4245" fill="white" transform="matrix(-1 0 0 -1 115.47 239.62)"/>
</clipPath>
<clipPath id="clip191_33_974">
<rect width="1.4245" height="1.4245" fill="white" transform="matrix(-1 0 0 -1 101.33 217.52)"/>
</clipPath>
<clipPath id="clip192_33_974">
<rect width="1.4245" height="1.4245" fill="white" transform="matrix(-1 0 0 -1 59.9102 219.52)"/>
</clipPath>
<clipPath id="clip193_33_974">
<rect width="1.4245" height="1.4245" fill="white" transform="matrix(-1 0 0 -1 321.63 266.64)"/>
</clipPath>
<clipPath id="clip194_33_974">
<rect width="4.1255" height="4.1255" fill="white" transform="matrix(-1 0 0 -1 379.56 295.21)"/>
</clipPath>
<clipPath id="clip195_33_974">
<rect width="2.183" height="2.183" fill="white" transform="matrix(-1 0 0 -1 395.22 306.61)"/>
</clipPath>
<clipPath id="clip196_33_974">
<rect width="1.4245" height="1.4245" fill="white" transform="matrix(-1 0 0 -1 418.03 299.28)"/>
</clipPath>
<clipPath id="clip197_33_974">
<rect width="1.4245" height="1.4245" fill="white" transform="matrix(-1 0 0 -1 428.45 318.2)"/>
</clipPath>
<clipPath id="clip198_33_974">
<rect width="1.4245" height="1.4245" fill="white" transform="matrix(-1 0 0 -1 411.85 329.49)"/>
</clipPath>
<clipPath id="clip199_33_974">
<rect width="1.4245" height="1.4245" fill="white" transform="matrix(-1 0 0 -1 442.859 330.75)"/>
</clipPath>
<clipPath id="clip200_33_974">
<rect width="1.4245" height="1.4245" fill="white" transform="matrix(-1 0 0 -1 445.95 346.93)"/>
</clipPath>
<clipPath id="clip201_33_974">
<rect width="1.4245" height="1.4245" fill="white" transform="matrix(-1 0 0 -1 447.109 327.59)"/>
</clipPath>
<clipPath id="clip202_33_974">
<rect width="1.4245" height="1.4245" fill="white" transform="matrix(-1 0 0 -1 422.7 260.53)"/>
</clipPath>
<clipPath id="clip203_33_974">
<rect width="1.4245" height="1.4245" fill="white" transform="matrix(-1 0 0 -1 437.38 272)"/>
</clipPath>
<clipPath id="clip204_33_974">
<rect width="1.4245" height="1.4245" fill="white" transform="matrix(-1 0 0 -1 469.47 290.91)"/>
</clipPath>
<clipPath id="clip205_33_974">
<rect width="1.4245" height="1.4245" fill="white" transform="matrix(-1 0 0 -1 460.57 277.4)"/>
</clipPath>
<clipPath id="clip206_33_974">
<rect width="1.4245" height="1.4245" fill="white" transform="matrix(-1 0 0 -1 445.54 245.58)"/>
</clipPath>
<clipPath id="clip207_33_974">
<rect width="1.4245" height="1.4245" fill="white" transform="matrix(-1 0 0 -1 497.45 232.42)"/>
</clipPath>
<clipPath id="clip208_33_974">
<rect width="1.4245" height="1.4245" fill="white" transform="matrix(-1 0 0 -1 317.149 337.24)"/>
</clipPath>
<clipPath id="clip209_33_974">
<rect width="1.4245" height="1.4245" fill="white" transform="matrix(-1 0 0 -1 315.46 358.82)"/>
</clipPath>
<clipPath id="clip210_33_974">
<rect width="1.4245" height="1.4245" fill="white" transform="matrix(-1 0 0 -1 319.75 366.05)"/>
</clipPath>
<clipPath id="clip211_33_974">
<rect width="1.4245" height="1.4245" fill="white" transform="matrix(-1 0 0 -1 335.14 369.4)"/>
</clipPath>
</defs>
</svg>
