<?xml version="1.0" standalone="no"?>
<!DOCTYPE svg PUBLIC "-//W3C//DTD SVG 20010904//EN"
 "http://www.w3.org/TR/2001/REC-SVG-20010904/DTD/svg10.dtd">
<svg version="1.0" xmlns="http://www.w3.org/2000/svg"
 width="486.000000pt" height="538.000000pt" viewBox="0 0 486.000000 538.000000"
 preserveAspectRatio="xMidYMid meet">

<g transform="translate(0.000000,538.000000) scale(0.100000,-0.100000)"
fill="#000000" stroke="none">
<path d="M1495 4840 c-511 -297 -933 -541 -938 -542 -4 -2 -6 -101 -5 -220 l3
-217 933 540 c513 296 938 539 943 539 6 0 152 -82 325 -182 l314 -181 -2
-365 -3 -365 -835 -482 -835 -483 -3 -590 -2 -590 183 -106 c101 -58 187 -106
190 -106 4 0 7 264 7 588 l0 587 840 485 840 485 -3 580 -2 579 -505 293
c-278 160 -507 292 -510 292 -3 0 -423 -243 -935 -539z m1388 96 l417 -248 0
-472 0 -471 -843 -501 -842 -501 -3 -417 -2 -417 30 -30 c85 -85 -36 -216
-124 -134 -36 33 -37 95 -1 131 l25 25 2 441 3 441 843 501 842 500 0 432 0
432 -388 231 c-214 127 -397 233 -406 237 -12 4 -269 -137 -811 -447 -751
-429 -794 -456 -795 -482 -1 -75 -91 -119 -149 -73 -8 6 -20 25 -27 43 -28 67
28 131 105 120 33 -5 101 32 851 463 726 417 817 467 835 456 11 -7 208 -124
438 -260z"/>
<path d="M717 4196 c-8 -19 15 -37 32 -26 17 10 7 40 -13 40 -7 0 -16 -6 -19
-14z"/>
<path d="M1560 1810 c0 -13 7 -20 20 -20 13 0 20 7 20 20 0 13 -7 20 -20 20
-13 0 -20 -7 -20 -20z"/>
<path d="M1485 4180 l-930 -509 -3 -42 -3 -41 73 40 c691 381 1795 982 1803
982 5 0 93 -49 195 -109 l185 -109 0 -213 0 -214 -832 -495 -832 -495 -1 -566
0 -566 28 -14 c15 -7 30 -15 35 -17 4 -2 7 250 7 560 l0 563 833 495 832 496
0 253 0 253 -220 129 c-121 71 -224 129 -230 129 -5 0 -428 -229 -940 -510z"/>
<path d="M3648 4104 l-3 -566 -842 -496 -843 -496 0 -587 0 -587 35 -21 35
-20 0 588 0 588 796 469 c438 258 803 470 810 472 12 3 14 -129 14 -817 0
-452 3 -821 6 -821 3 0 19 8 35 17 l29 17 0 1396 0 1396 -29 17 c-16 9 -32 17
-35 17 -3 0 -7 -255 -8 -566z"/>
<path d="M3910 3240 c0 -704 2 -1280 5 -1280 3 0 88 48 190 107 l185 107 0
1066 0 1066 -185 107 c-102 59 -187 107 -190 107 -3 0 -5 -576 -5 -1280z m252
1041 c41 -37 43 -89 4 -130 l-26 -27 0 -876 c0 -802 1 -877 17 -889 9 -8 22
-28 29 -46 38 -90 -77 -164 -147 -94 -40 41 -40 89 1 129 l30 30 0 872 0 872
-30 28 c-41 39 -42 90 -1 131 39 38 80 39 123 0z"/>
<path d="M4083 4224 c-3 -8 -1 -20 5 -26 15 -15 43 8 35 28 -7 19 -32 18 -40
-2z"/>
<path d="M4091 2300 c-17 -10 -7 -40 13 -40 7 0 16 6 19 14 8 19 -15 37 -32
26z"/>
<path d="M1488 3867 l-938 -542 0 -570 1 -570 187 -107 187 -107 5 571 5 571
835 482 835 483 3 115 3 115 -89 51 c-49 28 -91 51 -93 51 -2 -1 -426 -245
-941 -543z m1006 391 c24 -26 27 -37 22 -67 -8 -53 -46 -82 -105 -80 -44 3
-74 -14 -821 -455 -426 -252 -779 -462 -785 -467 -6 -6 -14 -173 -20 -411
l-11 -400 28 -28 c46 -47 36 -115 -22 -145 -42 -22 -66 -19 -101 13 -42 37
-43 91 -3 133 l28 29 11 420 c7 232 16 425 21 429 5 5 366 219 802 476 743
439 792 469 792 495 0 31 33 77 64 90 32 14 68 2 100 -32z"/>
<path d="M2411 4216 c-14 -17 -7 -36 14 -36 22 0 29 20 13 36 -13 13 -16 13
-27 0z"/>
<path d="M721 2296 c-9 -10 -8 -16 4 -26 19 -16 41 1 32 24 -8 20 -21 20 -36
2z"/>
<path d="M2838 2808 l-608 -351 0 -621 0 -621 101 -57 100 -57 90 50 89 51 0
522 1 521 229 131 230 132 0 -514 c0 -311 4 -514 9 -514 11 0 340 188 359 204
9 9 12 166 10 743 l-3 732 -607 -351z m462 -422 l0 -514 30 -30 c38 -39 39
-79 4 -121 -49 -59 -140 -35 -159 40 -7 30 17 86 41 96 12 4 14 73 14 464 0
252 -2 459 -5 459 -3 0 -176 -95 -385 -211 l-380 -212 0 -468 0 -468 25 -25
c36 -36 35 -98 -1 -131 -38 -35 -87 -34 -125 4 -40 41 -40 89 1 129 l30 30 0
485 0 485 448 250 c246 138 450 251 455 251 4 1 7 -230 7 -513z"/>
<path d="M3245 1790 c-4 -7 -3 -16 3 -22 14 -14 45 -2 40 15 -6 16 -34 21 -43
7z"/>
<path d="M2402 1333 c5 -26 38 -29 38 -4 0 15 -6 21 -21 21 -14 0 -19 -5 -17
-17z"/>
<path d="M2838 2192 l-28 -17 0 -428 0 -429 33 19 32 19 3 427 c1 235 -1 427
-5 426 -5 0 -20 -8 -35 -17z"/>
<path d="M450 732 c-28 -14 -37 -26 -47 -62 -16 -61 -16 -529 0 -590 17 -62
53 -80 167 -80 105 0 149 18 167 70 16 49 16 561 0 610 -18 52 -62 70 -167 70
-61 0 -95 -5 -120 -18z m150 -358 l0 -235 -27 3 -28 3 -3 220 c-1 121 0 225 2
232 3 7 17 13 31 13 l25 0 0 -236z"/>
<path d="M1542 735 c-49 -21 -65 -69 -60 -175 5 -106 16 -128 118 -228 l81
-79 -3 -54 c-3 -51 -5 -54 -30 -57 l-28 -3 0 65 0 66 -70 0 -70 0 0 -85 c0
-152 31 -185 177 -185 144 0 180 44 170 213 -6 96 -30 140 -121 220 -68 60
-92 106 -79 154 4 19 11 23 32 21 24 -3 26 -7 29 -55 l3 -53 71 0 71 0 -5 88
c-6 103 -17 128 -63 148 -45 18 -180 18 -223 -1z"/>
<path d="M3700 732 c-52 -26 -58 -63 -58 -357 0 -159 4 -266 11 -295 17 -62
53 -80 167 -80 105 0 149 18 167 70 16 49 16 561 0 610 -18 52 -62 70 -167 70
-61 0 -95 -5 -120 -18z m150 -358 l0 -235 -27 3 -28 3 -3 220 c-1 121 0 225 2
232 3 7 17 13 31 13 l25 0 0 -236z"/>
<path d="M0 375 l0 -365 75 0 75 0 0 125 0 125 58 0 c86 0 124 23 140 85 17
63 11 309 -7 343 -22 41 -68 52 -211 52 l-130 0 0 -365z m205 125 l0 -95 -27
-3 -28 -3 0 101 0 101 28 -3 27 -3 0 -95z"/>
<path d="M800 375 l0 -365 125 0 125 0 0 70 0 70 -50 0 -50 0 0 295 0 295 -75
0 -75 0 0 -365z"/>
<path d="M1081 433 c1 -355 5 -389 59 -415 44 -23 185 -25 235 -4 59 25 60 28
63 394 l3 332 -70 0 -71 0 -2 -297 -3 -298 -30 0 -30 0 -3 298 -2 297 -75 0
-75 0 1 -307z"/>
<path d="M2010 375 l0 -365 60 0 60 0 1 193 0 192 30 -140 c16 -77 35 -164 41
-193 l11 -52 83 0 84 0 0 365 0 365 -65 0 -65 0 -1 -167 -1 -168 -23 125 c-13
69 -28 143 -33 165 l-8 40 -87 3 -87 3 0 -366z"/>
<path d="M2430 375 l0 -365 135 0 135 0 0 70 0 70 -60 0 -60 0 0 85 0 85 50 0
50 0 0 70 0 70 -50 0 -50 0 0 70 0 70 60 0 60 0 0 70 0 70 -135 0 -135 0 0
-365z"/>
<path d="M2720 670 l0 -70 40 0 40 0 0 -295 0 -295 75 0 75 0 0 295 0 295 35
0 35 0 0 70 0 70 -150 0 -150 0 0 -70z"/>
<path d="M3034 703 c3 -21 22 -175 41 -343 20 -168 38 -315 40 -327 5 -22 10
-23 90 -23 46 0 86 3 88 8 3 4 11 78 18 166 7 90 16 150 20 140 4 -11 13 -86
20 -167 l12 -148 86 3 86 3 36 314 c20 173 40 336 43 362 l7 49 -65 0 -64 0
-5 -32 c-3 -18 -14 -117 -23 -221 -10 -103 -18 -186 -20 -185 -1 2 -9 86 -18
188 -9 102 -19 200 -22 218 l-5 32 -68 0 -68 0 -17 -177 c-9 -98 -16 -194 -16
-213 -1 -64 -17 -9 -24 80 -4 47 -12 136 -18 198 l-11 112 -74 0 -75 0 6 -37z"/>
<path d="M4040 375 l0 -365 75 0 75 0 0 151 0 150 28 -3 27 -3 5 -135 c3 -74
9 -141 14 -148 4 -8 33 -12 81 -12 l74 0 -10 32 c-5 18 -9 78 -9 133 0 113
-12 170 -40 187 -19 12 -18 14 8 41 25 26 27 35 30 130 7 186 -16 207 -228
207 l-130 0 0 -365z m210 150 l0 -75 -30 0 -30 0 0 75 0 75 30 0 30 0 0 -75z"/>
<path d="M4460 375 l0 -365 75 0 75 0 1 148 0 147 43 -145 43 -145 77 -3 c71
-3 77 -1 72 15 -3 10 -30 98 -60 196 l-55 177 59 170 59 170 -73 0 -73 0 -46
-147 -46 -148 0 148 -1 147 -75 0 -75 0 0 -365z"/>
</g>
</svg>
