<?xml version="1.0" standalone="no"?>
<!DOCTYPE svg PUBLIC "-//W3C//DTD SVG 20010904//EN"
 "http://www.w3.org/TR/2001/REC-SVG-20010904/DTD/svg10.dtd">
<svg version="1.0" xmlns="http://www.w3.org/2000/svg"
 width="346.000000pt" height="395.000000pt" viewBox="0 0 346.000000 395.000000"
 preserveAspectRatio="xMidYMid meet">

<g transform="translate(0.000000,395.000000) scale(0.100000,-0.100000)"
fill="#000000" stroke="none">
<path d="M868 3443 l-858 -496 0 -199 0 -199 23 12 c12 7 400 230 861 496 461
266 845 483 852 481 7 -2 141 -77 298 -168 l286 -165 0 -335 -1 -335 -774
-445 -775 -445 3 -544 2 -545 170 -98 170 -98 3 543 2 542 773 446 772 445 2
535 3 534 -461 265 c-253 146 -468 266 -477 267 -9 1 -403 -221 -874 -494z
m1272 103 l395 -235 0 -437 0 -438 -770 -457 -770 -456 -3 -388 -2 -387 25
-30 c32 -38 33 -81 0 -113 -37 -38 -88 -37 -122 1 -30 33 -29 75 2 112 l25 30
2 403 3 404 770 457 770 457 3 403 2 404 -361 214 c-199 118 -365 216 -369
218 -4 2 -339 -187 -744 -418 -643 -369 -736 -425 -736 -445 0 -37 -10 -55
-42 -71 -86 -44 -164 60 -98 131 20 21 32 25 70 23 43 -2 81 19 790 425 409
235 749 427 755 427 5 0 188 -106 405 -234z"/>
<path d="M167 2864 c-14 -15 -6 -34 14 -34 14 0 19 5 17 17 -3 18 -20 27 -31
17z"/>
<path d="M935 670 c-4 -7 -3 -16 3 -22 14 -14 45 -2 40 15 -6 16 -34 21 -43 7z"/>
<path d="M876 2846 c-466 -255 -853 -469 -858 -474 -5 -5 -8 -23 -6 -40 l3
-31 859 470 859 470 116 -67 c64 -37 143 -84 176 -104 l60 -37 2 -194 3 -194
-768 -456 -767 -456 -3 -521 -2 -521 30 -16 30 -15 2 516 3 517 767 456 767
456 0 235 0 235 -203 118 c-111 64 -207 117 -212 117 -5 0 -391 -209 -858
-464z"/>
<path d="M2858 2774 l-3 -526 -770 -453 -770 -452 -3 -546 -2 -546 30 -16 30
-15 2 541 3 542 738 433 c406 239 740 434 742 434 3 0 5 -342 5 -760 l0 -759
30 17 30 17 0 1290 0 1291 -30 17 -30 18 -2 -527z"/>
<path d="M3110 1976 c0 -647 2 -1176 4 -1176 3 0 78 42 168 94 l163 94 0 987
0 987 -155 90 c-85 50 -161 92 -167 95 -10 4 -13 -234 -13 -1171z m226 960
c38 -32 38 -85 1 -124 l-27 -28 0 -803 0 -802 27 -23 c57 -49 19 -146 -58
-146 -71 0 -106 94 -54 146 l25 25 0 804 0 804 -25 25 c-77 77 29 193 111 122z"/>
<path d="M3271 2891 c-15 -10 -8 -41 9 -41 15 0 25 29 14 40 -5 5 -15 5 -23 1z"/>
<path d="M3262 1093 c2 -10 10 -18 18 -18 8 0 16 8 18 18 2 12 -3 17 -18 17
-15 0 -20 -5 -18 -17z"/>
<path d="M867 2552 l-857 -496 0 -527 0 -526 168 -97 167 -96 5 522 5 522 773
446 772 445 -2 110 -3 109 -70 42 c-38 24 -77 42 -85 42 -8 0 -401 -223 -873
-496z m931 362 c51 -57 9 -137 -71 -133 -39 2 -96 -30 -767 -426 -399 -235
-726 -428 -726 -429 -1 0 -7 -169 -13 -375 l-10 -374 24 -19 c19 -15 25 -29
25 -58 0 -48 -25 -79 -71 -86 -80 -13 -125 82 -67 143 l26 28 11 389 c6 214
12 390 13 391 2 1 335 197 741 436 668 393 737 436 737 459 0 79 94 114 148
54z"/>
<path d="M1715 2870 c-4 -7 -3 -16 3 -22 14 -14 45 -2 40 15 -6 16 -34 21 -43
7z"/>
<path d="M167 1114 c-14 -15 -6 -34 14 -34 14 0 19 5 17 17 -3 18 -20 27 -31
17z"/>
<path d="M2112 1578 l-552 -320 2 -576 3 -576 83 -48 c46 -26 88 -48 93 -48 5
0 43 19 84 42 l74 43 1 477 0 478 27 17 c14 10 110 66 212 125 l186 107 3
-475 c1 -262 6 -474 11 -472 4 2 83 46 174 98 l167 95 0 678 c0 372 -3 677 -7
676 -5 -1 -257 -145 -561 -321z m428 -393 c0 -455 1 -475 19 -484 54 -29 42
-128 -19 -149 -88 -31 -151 70 -85 138 l25 26 -2 421 -3 420 -355 -198 -355
-197 -3 -428 -2 -428 25 -23 c33 -31 40 -64 21 -101 -21 -40 -66 -58 -106 -42
-37 15 -50 37 -50 83 0 23 8 41 25 57 l25 23 0 448 0 447 413 230 c226 127
415 231 420 231 4 1 7 -213 7 -474z"/>
<path d="M2490 630 c0 -13 7 -20 20 -20 13 0 20 7 20 20 0 13 -7 20 -20 20
-13 0 -20 -7 -20 -20z"/>
<path d="M1717 233 c-14 -13 -6 -33 13 -33 13 0 20 7 20 20 0 19 -20 27 -33
13z"/>
<path d="M2118 1012 l-28 -17 0 -393 0 -393 30 16 30 16 0 394 c0 217 -1 395
-2 395 -2 0 -15 -8 -30 -18z"/>
</g>
</svg>
