<?xml version="1.0" standalone="no"?>
<!DOCTYPE svg PUBLIC "-//W3C//DTD SVG 20010904//EN"
 "http://www.w3.org/TR/2001/REC-SVG-20010904/DTD/svg10.dtd">
<svg version="1.0" xmlns="http://www.w3.org/2000/svg"
 width="860.000000pt" height="275.000000pt" viewBox="0 0 860.000000 275.000000"
 preserveAspectRatio="xMidYMid meet">

<g transform="translate(0.000000,275.000000) scale(0.100000,-0.100000)"
fill="#000000" stroke="none">
<path d="M605 2402 l-600 -347 -3 -142 -3 -141 604 349 604 350 204 -118 204
-118 0 -235 0 -234 -537 -310 -538 -311 0 -380 0 -380 118 -67 117 -68 3 378
3 377 537 310 537 310 2 375 3 375 -322 185 c-177 102 -324 186 -327 187 -3 2
-276 -154 -606 -345z m898 59 l257 -153 0 -307 -1 -306 -539 -320 -540 -320 0
-267 c0 -255 1 -269 20 -288 11 -11 20 -30 20 -42 0 -53 -74 -79 -104 -36 -21
30 -20 53 4 76 19 17 20 34 22 302 l3 285 538 320 537 320 0 277 0 277 -212
127 c-117 69 -234 139 -259 154 l-46 28 -508 -292 c-460 -264 -510 -296 -517
-323 -5 -18 -18 -34 -35 -42 -23 -10 -30 -9 -52 7 -32 24 -37 46 -17 77 12 19
25 25 51 25 28 0 146 63 558 300 470 269 524 298 542 286 11 -7 136 -81 278
-165z"/>
<path d="M110 1985 c0 -9 5 -15 11 -13 6 2 11 8 11 13 0 5 -5 11 -11 13 -6 2
-11 -4 -11 -13z"/>
<path d="M650 455 c0 -9 5 -15 11 -13 6 2 11 8 11 13 0 5 -5 11 -11 13 -6 2
-11 -4 -11 -13z"/>
<path d="M600 1981 c-551 -304 -595 -330 -598 -356 l-4 -28 54 30 c168 94
1135 622 1144 625 6 2 66 -28 132 -67 l122 -70 0 -136 0 -136 -535 -319 -535
-319 0 -360 c0 -356 2 -385 32 -385 4 0 8 161 8 358 l0 358 535 319 535 319 0
166 -1 165 -143 83 c-78 45 -144 82 -147 81 -2 0 -272 -148 -599 -328z"/>
<path d="M1988 1928 l-3 -361 -537 -316 -537 -316 -1 -382 c0 -372 1 -383 20
-393 20 -11 20 -8 20 367 l0 378 510 300 c281 165 515 302 520 303 7 2 10
-183 10 -523 0 -477 2 -527 16 -521 9 3 18 6 20 6 2 0 4 407 4 904 0 815 -2
904 -16 910 -9 3 -17 6 -20 6 -2 0 -5 -163 -6 -362z"/>
<path d="M2160 1375 l0 -824 118 68 117 68 0 688 0 688 -117 68 -118 68 0
-824z m164 663 c21 -30 20 -54 -4 -78 -20 -20 -20 -33 -20 -580 0 -547 0 -560
20 -580 11 -11 20 -29 20 -40 0 -11 -9 -29 -20 -40 -11 -11 -29 -20 -40 -20
-25 0 -60 34 -60 59 0 10 9 30 20 44 19 24 20 40 20 581 0 543 0 556 -20 576
-11 11 -20 30 -20 42 0 53 74 79 104 36z"/>
<path d="M2267 2014 c-8 -8 1 -24 14 -24 5 0 9 7 9 15 0 15 -12 20 -23 9z"/>
<path d="M2270 760 c0 -5 5 -10 10 -10 6 0 10 5 10 10 0 6 -4 10 -10 10 -5 0
-10 -4 -10 -10z"/>
<path d="M605 1780 l-600 -348 0 -368 0 -369 115 -66 115 -67 5 365 5 365 535
309 535 309 3 78 2 77 -57 31 -58 31 -600 -347z m639 254 c20 -20 21 -68 0
-84 -8 -8 -29 -13 -47 -13 -23 0 -161 -77 -532 -295 -275 -163 -502 -297 -504
-298 -1 -2 -6 -119 -11 -261 -7 -244 -6 -259 11 -279 25 -26 24 -59 -1 -84
-25 -25 -55 -25 -80 0 -25 25 -25 50 -1 82 18 22 20 49 27 294 l7 270 513 302
c437 258 513 307 519 330 4 15 11 33 17 39 15 18 63 16 82 -3z"/>
<path d="M1190 1996 c0 -9 7 -16 16 -16 17 0 14 22 -4 28 -7 2 -12 -3 -12 -12z"/>
<path d="M110 765 c0 -9 5 -15 11 -13 6 2 11 8 11 13 0 5 -5 11 -11 13 -6 2
-11 -4 -11 -13z"/>
<path d="M3194 1821 c-68 -31 -69 -37 -69 -441 0 -404 1 -410 69 -441 58 -26
234 -26 292 0 68 31 69 37 69 441 0 404 -1 410 -69 441 -58 26 -234 26 -292 0z
m181 -441 l0 -285 -35 0 -35 0 -3 275 c-1 151 0 281 3 288 3 8 17 12 37 10
l33 -3 0 -285z"/>
<path d="M4540 1829 c-70 -29 -97 -105 -86 -243 8 -109 30 -150 136 -246 48
-45 93 -94 100 -109 6 -15 10 -52 8 -82 l-3 -54 -35 0 -35 0 -3 83 -3 83 -82
-3 -82 -3 0 -115 c1 -126 11 -159 58 -194 40 -29 217 -36 283 -11 69 26 79 54
79 210 0 162 -8 180 -134 294 -98 90 -114 117 -109 182 3 43 4 44 38 44 l35 0
3 -67 3 -68 86 0 86 0 -5 103 c-5 112 -17 149 -61 181 -24 18 -45 21 -140 23
-62 2 -123 -2 -137 -8z"/>
<path d="M7194 1821 c-68 -31 -69 -37 -69 -441 0 -404 1 -410 69 -441 58 -26
234 -26 292 0 68 31 69 37 69 441 0 404 -1 410 -69 441 -58 26 -234 26 -292 0z
m181 -441 l0 -285 -35 0 -35 0 -3 275 c-1 151 0 281 3 288 3 8 17 12 37 10
l33 -3 0 -285z"/>
<path d="M2640 1381 l0 -451 90 0 90 0 0 155 0 155 73 0 c93 1 148 24 168 71
10 25 14 82 14 224 0 291 2 288 -257 293 l-178 4 0 -451z m255 154 l0 -120
-37 -3 -38 -3 0 126 0 126 38 -3 37 -3 0 -120z"/>
<path d="M3620 1380 l0 -450 155 0 155 0 0 85 0 85 -65 0 -65 0 0 365 0 365
-90 0 -90 0 0 -450z"/>
<path d="M3972 1423 c3 -466 2 -458 82 -488 61 -23 248 -18 287 8 53 36 54 40
57 480 l3 407 -85 0 -86 0 -2 -367 -3 -368 -35 0 -35 0 -3 368 -2 367 -91 0
-90 0 3 -407z"/>
<path d="M5110 1380 l0 -450 75 0 75 0 1 248 1 247 33 -160 c18 -88 42 -198
52 -245 l18 -85 98 -3 97 -3 0 451 0 450 -75 0 -75 0 -1 -212 c-1 -117 -3
-202 -6 -188 -2 14 -20 109 -39 213 l-36 187 -109 0 -109 0 0 -450z"/>
<path d="M5620 1380 l0 -450 170 0 170 0 0 85 0 85 -80 0 -80 0 0 105 0 105
60 0 60 0 0 85 0 85 -60 0 -60 0 0 90 0 90 80 0 80 0 0 85 0 85 -170 0 -170 0
0 -450z"/>
<path d="M5990 1745 l0 -85 45 0 45 0 0 -365 0 -365 90 0 90 0 0 365 0 365 45
0 45 0 0 67 c0 36 2 64 5 61 5 -4 105 -817 105 -849 0 -5 48 -9 109 -9 l109 0
6 48 c3 26 13 126 22 222 15 166 24 224 24 149 0 -19 7 -121 17 -227 l17 -193
106 3 105 3 46 390 c25 215 49 416 52 448 l7 57 -79 0 c-94 0 -80 37 -112
-304 -13 -136 -24 -244 -26 -240 -1 5 -11 115 -23 244 -11 129 -23 250 -26
268 l-5 32 -83 0 -83 0 -6 -52 c-3 -29 -13 -138 -22 -243 -9 -104 -19 -201
-22 -215 -5 -21 -51 403 -53 483 l0 27 -275 0 -275 0 0 -85z"/>
<path d="M7620 1380 l0 -450 90 0 90 0 0 185 0 185 30 0 c19 0 33 -7 40 -19 5
-11 10 -82 11 -158 1 -198 -5 -187 108 -191 86 -3 93 -1 86 15 -4 10 -11 95
-15 188 -6 172 -11 195 -49 229 l-21 19 24 22 c36 34 49 95 44 220 -7 190 -27
205 -278 205 l-160 0 0 -450z m255 185 l0 -90 -37 -3 -38 -3 0 96 0 96 38 -3
37 -3 0 -90z"/>
<path d="M8110 1380 l0 -450 90 0 90 0 1 193 0 192 45 -155 c24 -85 49 -172
54 -192 l11 -38 95 0 c94 0 95 0 88 23 -4 12 -37 119 -74 238 l-67 216 69 203
c37 112 68 207 68 212 0 5 -39 7 -86 6 l-86 -3 -59 -185 -58 -185 -1 188 0
187 -90 0 -90 0 0 -450z"/>
<path d="M1463 1097 l-383 -222 0 -402 0 -401 64 -36 64 -36 56 32 56 32 0
336 1 335 140 80 c77 44 144 81 149 83 6 2 11 -129 12 -327 l3 -330 117 67
117 67 1 473 c0 259 -3 472 -7 471 -5 0 -180 -101 -390 -222z m307 -274 c1
-273 3 -331 15 -347 8 -11 15 -30 15 -42 0 -57 -81 -73 -109 -22 -14 25 -14
29 7 57 22 30 22 36 22 321 0 161 -4 290 -8 288 -5 -1 -118 -64 -250 -138
l-242 -135 0 -298 c0 -284 1 -298 20 -317 37 -37 14 -100 -37 -100 -28 0 -63
33 -63 60 0 11 9 29 20 40 19 19 20 33 20 333 l0 312 283 157 c155 86 288 157
295 158 9 0 12 -72 12 -327z"/>
<path d="M1730 435 c0 -9 5 -15 11 -13 6 2 11 8 11 13 0 5 -5 11 -11 13 -6 2
-11 -4 -11 -13z"/>
<path d="M1192 151 c2 -7 7 -12 11 -12 12 1 9 15 -3 20 -7 2 -11 -2 -8 -8z"/>
<path d="M1462 698 c-9 -9 -12 -86 -12 -285 0 -271 0 -274 20 -263 19 10 20
21 20 285 0 151 -4 275 -8 275 -4 0 -13 -5 -20 -12z"/>
</g>
</svg>
